<?xml version="1.0" encoding="utf-8"?>
<!-- Generator: Adobe Illustrator 18.0.0, SVG Export Plug-In . SVG Version: 6.00 Build 0)  -->
<!DOCTYPE svg PUBLIC "-//W3C//DTD SVG 1.1//EN" "http://www.w3.org/Graphics/SVG/1.1/DTD/svg11.dtd">
<svg version="1.1" id="Layer_1" xmlns="http://www.w3.org/2000/svg" xmlns:xlink="http://www.w3.org/1999/xlink" x="0px" y="0px"
	 viewBox="0 0 100 100" enable-background="new 0 0 100 100" xml:space="preserve">
<path d="M5,50c0,24.9,20.1,45,45,45s45-20.1,45-45C95,25.1,74.9,5,50,5S5,25.1,5,50L5,50z M62.1,24.3c2.6,2.6,2.6,6.9,0,9.5L46,50
	l16.1,16.2c2.7,2.6,2.7,6.9,0,9.5c-2.6,2.6-6.9,2.6-9.5,0L31.6,54.8c-2.6-2.6-2.6-6.9,0-9.5c0,0,20.8-20.8,20.9-20.9
	C55.2,21.7,59.4,21.7,62.1,24.3z"/>
</svg>
