<svg xmlns="http://www.w3.org/2000/svg" viewBox="0 0 2048 2048"><path d="M0 805q0-142 36.5-273T140 287.5t160-207 207-160 244.5-103T1024-219t272.5 36.5 244.5 103 207 160 160 207T2011.5 532t36.5 273-36.5 272.5-103.5 244-160 207-207 160-244.5 103.5-272.5 37-272.5-37T507 1688.5t-207-160-160-207-103.5-244T0 805zm561-.5q0 29.5 11 58t34 50.5l476 477q23 23 51.5 33.5t58 10.5 57.5-10.5 50-33.5q23-23 34.5-51.5t11.5-58-11.5-57.5-34.5-50L933 805l366-367q22-23 33.5-51.5t11.5-58-11.5-57T1299 221q-23-23-51.5-34.5T1190 175t-57.5 11.5T1082 221q-1 0-21.5 21t-54 54-76.5 76-88 87L606 696q-23 23-34 51t-11 57.5z"/></svg>