<svg xmlns="http://www.w3.org/2000/svg" viewBox="0 0 2048 2048"><path d="M0 805q0-142 36.5-273T140 287.5t160-207 207-160 244.5-103T1024-219t272.5 36.5 244.5 103 207 160 160 207T2011.5 532t36.5 273-36.5 272.5-103.5 244-160 207-207 160-244.5 103.5-272.5 37-272.5-37T507 1688.5t-207-160-160-207T36.5 1077 0 805zm703-476.5q0 29.5 11.5 58T749 437l366 368-366 366q-23 23-34 51.5t-11 58 11 58 34 50.5q22 23 50 34t58 11 58-11.5 51-33.5l21-21q21-22 54.5-55t76.5-76 88-87l236-237q22-22 33.5-50.5t11.5-58-11.5-57.5-33.5-51L966 219q-23-22-51.5-33t-58-11-58 11.5T749 219q-23 23-34.5 51.5t-11.5 58z"/></svg>