<svg xmlns="http://www.w3.org/2000/svg" viewBox="0 0 2048 2048"><path d="M0 805q0-142 36.5-273T140 287.5t160-207 207-160 244.5-103T1024-219t272.5 36.5 244.5 103 207 160 160 207T2011.5 532t36.5 273-36.5 272.5-103.5 244-160 207-207 160-244.5 103.5-272.5 37-272.5-37T507 1688.5t-207-160-160-207T36.5 1077 0 805zm394-167q0 29 11.5 58t34.5 50q0 1 21 22l54.5 54.5 76 76.5 87.5 87 236 237q22 23 50.5 33.5t58.5 10.5 58-10.5 51-33.5l476-477q22-23 33.5-51.5T1654 637t-11.5-57-33.5-51q-23-23-51.5-34.5T1500 483t-57.5 11.5T1392 529l-368 367-368-367q-23-22-51-33t-57-11-57.5 11-50.5 33q-23 23-34.5 51.5T394 638z"/></svg>