<svg xmlns="http://www.w3.org/2000/svg" viewBox="0 0 1976 2048"><path d="M73 751q0-32 12.5-63t36.5-55q173-171 309-307L743 14q24-24 54-36.5T859-35t62.5 12.5T976 14t36 54 12 62-12 62.5-36 54.5l-21.5 21.5L902 321l-71 71-76 76-68.5 68.5L638 585h1172q34 0 64.5 13t53 35.5 35.5 52 13 64.5q0 34-13 64.5t-35.5 52.5-52.5 35-65 13H638q91 93 164 165 31 31 61.5 61t55 54 40.5 40 18 19q24 24 35.5 54t11.5 62-11.5 63-35.5 55-55 36-63 12-61.5-12-53.5-36q-3-2-31-30t-73-72-100-99.5T427 1173q-135-135-305-307-24-24-36.5-53.5T73 751z"/></svg>