<svg xmlns="http://www.w3.org/2000/svg" viewBox="0 0 2048 2048"><path d="M0 805q0-142 36.5-272.5t103.5-244T300 81 507-79.5t244.5-103T1024-219t272.5 36.5 244.5 103T1748 81t160 207.5T2011.5 533t36.5 272q0 142-36.5 272.5t-103.5 244-160 207-207 160-244.5 103.5-272.5 37-272.5-37T507 1688.5t-207-160-160-207-103.5-244T0 805zm402 0q0 44 32 76l406 406q32 32 76 32t76-32 32-76.5-32-76.5q-2-1-12.5-12t-26.5-26.5-35.5-35L878 1021q-48-47-108-108h767q22 0 42-8.5t34-23.5 23-34.5 9-41.5-9-42-23-34.5-34-23-42-8.5H771l110-110q21-21 41-40.5t35.5-35l25-25L992 475q32-32 32-76t-32-76-76-32-76 32q-1 0-19 18l-46.5 46.5-65 65L635 527q-88 89-201 202-32 32-32 76z"/></svg>