<svg xmlns="http://www.w3.org/2000/svg" viewBox="0 0 2048 2048"><path d="M0 805q0-142 36.5-273T140 287.5t160-207 207-160 244.5-103T1024-219t272.5 36.5 244.5 103 207 160 160 207T2011.5 532t36.5 273q0 141-36.5 271.5t-103.5 244-160 207.5-207 160.5-244.5 103.5-272.5 37-272.5-37T507 1688.5 300 1528t-160-207.5-103.5-244T0 805zm403 0q0 23 9 42t23 33.5 33.5 23T511 912h766l-110 110q-21 21-41 40.5t-35.5 35-24.5 26.5l-10 10q-32 32-32 76t32 76 76 32 76-32l18-18q19-18 47.5-46.5l65-65 74.5-74.5q88-88 201-202 32-32 32-76t-32-76l-406-406q-32-32-76-32t-76 32-32 76.5 32 76.5q1 2 12 12.5t26.5 26.5 35.5 35.5 40 40.5q47 47 108 106H511q-23 0-42.5 8.5T435 728t-23 35-9 42z"/></svg>