<svg xmlns="http://www.w3.org/2000/svg" viewBox="0 0 1571 2048"><path d="M0 712.5Q0 681 12 651t36-54q2-2 30-31t72-73 99.5-100T363 280Q498 145 670-25q24-24 53.5-36.5T785-74t63 12.5T903-25q171 173 307 308 58 58 113.5 114t99.5 100l71 71 28 27q24 24 36.5 54.5T1571 712t-12.5 62.5T1522 829t-54 36-62 12-62.5-12-54.5-36q-1-1-21.5-22t-52.5-53-71-70.5-76-76-68.5-69L951 490v1173q0 34-13 64.5t-35.5 52.5-52 35.5T786 1829q-34 0-64.5-13.5T669 1780t-35-52.5-13-64.5V490q-93 91-165 165l-61 61-54 54.5-40 40.5-19 19q-24 24-54 35.5T166 877t-63-11.5T48 830t-36-55-12-62.5z"/></svg>