<svg xmlns="http://www.w3.org/2000/svg" viewBox="0 0 2048 2048"><path d="M0 805q0-142 36.5-273T140 287.5t160-207 207-160 244.5-103T1024-219q141 0 271.5 36.5t244.5 103 207.5 160 160.5 207T2011.5 532t36.5 273-36.5 272.5-103.5 244-160.5 207-207.5 160-244.5 103.5-271.5 37q-142 0-272.5-37T507 1688.5t-207-160-160-207T36.5 1077 0 805zm510-108q0 44 32 76t76.5 32 76.5-32l12-12 26.5-26.5L768 699l40-41 107-107v767q0 23 9 42t23.5 33.5 34 23 42.5 8.5q22 0 42-8.5t34-23 22.5-33.5 8.5-42V552l110 110q21 21 41 40.5t35.5 35 25 25.5 10.5 10q32 32 76 32t76-32 32-76-32-76l-17-19-46.5-46.5-65.5-65-74-74.5q-89-88-203-201-32-32-76-32t-76 32L542 621q-32 32-32 76z"/></svg>