<svg xmlns="http://www.w3.org/2000/svg" viewBox="0 0 1571 2048"><path d="M0 897q0-32 12.5-62T49 781t54.5-36 62.5-12 62 12 54 36q1 1 22 21.5t53 52.5 70.5 71 76 76 68.5 68.5 49 48.5V-54q0-34 12.5-64.5T668-171t52.5-35 64.5-13 64.5 13 53 35 35.5 52.5T951-54v1173q90-91 163-165 31-31 61.5-61t55-54.5L1271 798l18-19q24-24 54.5-35t62.5-11 62.5 11 54.5 35 36 55 12 63-12 62-36 54q-2 3-30.5 31t-72.5 72.5-100 100-113 112.5q-136 135-305 305-24 24-54.5 36.5t-62 12.5-62-12.5T669 1634l-309-308-113.5-113.5-99-99.5-70.5-71-28-28q-24-24-36.5-54.5T0 897z"/></svg>