<svg xmlns="http://www.w3.org/2000/svg" viewBox="0 0 2048 2048"><path d="M0 805q0-142 36.5-273T140 287.5t160.5-207T508-79.5t244-103 272-36.5 272.5 36.5 244.5 103 207 160 160 207T2011.5 532t36.5 273-36.5 272.5-103.5 244-160 207-207 160-244.5 103.5-272.5 37q-141 0-271.5-37T508 1688.5t-207.5-160-160.5-207T36.5 1077 0 805zm511 108q0 44 32 76 0 1 17.5 18.5l46 46 65.5 65 74 74.5q88 88 203 201 32 32 76 32t76-32l405-405q32-32 32-76t-32-76-76.5-32-76.5 32l-114 114q-47 48-106 107V291q0-22-9-41.5t-23.5-34-34.5-23-42-8.5q-23 0-42.5 8.5t-33.5 23-22.5 34.5-8.5 41v766L807 947q-21-21-41-40.5t-35.5-35L705 846l-10-9q-32-32-76-32t-76 32-32 76z"/></svg>