<svg xmlns="http://www.w3.org/2000/svg" viewBox="0 0 2048 2048"><path d="M0 802q0-141 36.5-271.5t103-243.5 160-207T506-80t244-102.5 272-36.5q142 0 273 36.5T1540-80t207.5 160T1908 287t103.5 244 36.5 271q0 142-36.5 273.5t-103.5 245-160.5 207.5-207.5 160.5-245.5 103.5-272.5 37-272-37-244-103.5T299.5 1528t-160-207.5-103-245T0 802zm719 471h608v-163H942l265-228q13-9 22.5-21t20.5-22q14-14 22-25.5t17-24.5q6-16 12-30.5t12-33.5q3-17 5.5-35.5t2.5-40.5q0-65-22-115-9-24-25.5-44t-36.5-37q-16-16-39-29.5t-49-20.5q-24-8-53-12.5t-57-4.5q-33 0-61.5 4.5T920 403q-27 7-52 20.5T825 453q-21 17-37.5 38.5T759 537q-13 25-19.5 54.5T731 657l184 13q3-24 11.5-44t22.5-34q16-19 35-28t45-9q43 0 75 26 33 27 33 70 0 19-7 37t-18 34q-15 13-28 25.5t-26 26.5l-339 304v195z"/></svg>