<svg xmlns="http://www.w3.org/2000/svg" viewBox="0 0 2048 2048"><path d="M0 805q0-142 36.5-272.5t103.5-244T300 81 507-79.5t244.5-103T1024-219q141 0 271.5 36.5t244.5 103T1747.5 81 1908 288.5 2011.5 533t36.5 272q0 142-36.5 272.5t-103.5 244-160.5 207-207.5 160-244.5 103.5-271.5 37q-142 0-272.5-37T507 1688.5t-207-160-160-207T36.5 1077 0 805zm698 260q16 57 42 99.5t71 69.5q43 25 92 39.5t111 14.5q29 0 59-4.5t60-11.5q29-8 53.5-21t44.5-29q23-16 40-36.5t30-44.5q11-25 17.5-53.5t6.5-56.5q0-23-2-41.5t-10-36.5q-3-16-10-31.5t-20-30.5q-10-13-23-24t-29-19q-16-11-34.5-17t-38.5-8v-2q39-9 68.5-24.5T1274 755q37-50 37-125 0-30-6.5-57t-18.5-50q-21-47-63-75-19-16-44-27.5t-51-19.5q-27-6-56.5-10t-55.5-4-52.5 3.5T912 399q-24 8-47 16.5T823 437q-22 13-40 29t-34 36q-13 18-22.5 41.5T709 598l198 39q6-14 16-29t23-30q17-10 34-15.5t39-5.5 40.5 6.5T1093 581q19 15 26 31.5t7 36.5q0 16-2.5 27.5T1117 698q-18 19-38 30-9 6-20 9.5t-21 6.5q-13 1-26.5 1H926v162h73.5l27.5 2q35 0 58 12 26 5 41 28 16 22 16 57 0 26-8 45.5t-23 34.5q-29 32-87 32-59 0-93-27-13-16-22.5-32.5T894 1017z"/></svg>