<svg xmlns="http://www.w3.org/2000/svg" viewBox="0 0 2048 2048"><path d="M0 805q0-142 36.5-273T140 287.5t160.5-207T508-79.5t244-103 272-36.5 272.5 36.5 244.5 103 207 160 160 207T2011.5 532t36.5 273q0 141-36.5 271.5t-103.5 244-160 207.5-207 160.5-244.5 103.5-272.5 37q-141 0-271.5-37T508 1688.5 300.5 1528 140 1320.5t-103.5-244T0 805zm699 260q30 114 103 162 41 30 88.5 45.5T997 1288q65 0 128-23 30-11 57.5-25.5t47.5-33.5q22-22 40.5-47t27.5-52q25-57 25-133 0-33-5.5-62t-16.5-57q-9-26-24.5-47t-38.5-40q-34-35-96-57-26-11-56.5-16t-61.5-5q-23 0-43 2t-32 7l2-134h344V402H771l-11 479q23-7 44.5-13t44.5-10q25-3 47-5t47-2q17 0 34.5 1.5t33.5 2.5q17 3 32.5 10t31.5 15q14 9 26.5 19t19.5 23q9 16 14.5 32.5t5.5 40.5q0 26-10.5 51t-26.5 44q-18 17-40.5 24t-52.5 7q-22 0-41.5-5t-36.5-21q-17-14-26-33.5t-13-43.5z"/></svg>