<svg xmlns="http://www.w3.org/2000/svg" viewBox="0 0 2048 2048"><path d="M0 803q0-142 36.5-272T140 287.5t160-207 207.5-160 245-103T1025-219q141 0 271.5 36.5t244.5 103 207 160 160 207T2011.5 532t36.5 271q0 142-36.5 273T1908 1321t-160 207.5-207 160-244.5 103.5-271.5 37q-142 0-272.5-37t-245-103.5-207.5-160T140 1321 36.5 1076 0 803zm696 184q0 34 5.5 67.5T720 1112q13 27 30.5 51t39.5 43q25 22 49.5 36t57.5 23q30 14 61 18.5t64 4.5q34 0 65.5-4.5t62.5-18.5q27-9 54-23.5t46-35.5q26-18 42.5-42.5t30.5-51.5q11-24 18.5-57t7.5-68q0-56-21-110-9-26-22-48.5t-35-41.5q-17-18-39-33t-48-24q-25-10-53.5-16.5T1072 707h-15.5l-13.5 3q-9 0-14.5 1.5T1015 717l201-315H995L802 699q-11 17-20 34.5T761 767q-10 14-18.5 30T725 832q-5 15-10.5 32.5T704 901q-8 40-8 86zm185-5q0-32 11-55.5t28-41.5q23-19 47-29t55-10q62 0 99 39 22 18 30 41.5t8 55.5q0 30-8 53.5t-30 45.5q-19 21-44.5 29.5t-54.5 8.5q-31 0-55-8.5t-47-29.5q-17-22-28-46t-11-53z"/></svg>