<svg xmlns="http://www.w3.org/2000/svg" viewBox="0 0 2048 2048"><path d="M0 802q0-141 36.5-271.5t103-243.5 160-207T506-80t244-102.5 272-36.5q142 0 273 36.5T1540-80t207.5 160T1908 287t103.5 244 36.5 271q0 142-36.5 273.5t-103.5 245-160.5 207.5-207.5 160.5-245.5 103.5-272.5 37-272-37-244-103.5T299.5 1528t-160-207.5-103-245T0 802zm719 230q0 33 5 61.5t19 51.5q13 23 30.5 42t36.5 37q19 17 44.5 28t52.5 19 56 12.5 59 4.5q33 0 61.5-4.5t54.5-12.5q30-8 54.5-19t45.5-28q38-36 67-79 14-23 19-51.5t5-61.5q0-78-43-134-41-57-117-75v-2q37-10 62-28.5t46-45.5q19-24 27.5-54t8.5-67q0-59-23-103-10-23-25-41t-36-32q-18-16-42.5-27.5T1136 403q-50-16-114-16-58 0-112 16-26 8-49 19.5T818 450q-43 27-60 73-14 22-19.5 47t-5.5 56q0 74 38 121 19 26 45 44.5t63 29.5v2q-78 18-119 75-41 55-41 134zm183-22q0-48 32-79 35-35 88-35 31 0 53 9t38 26q33 30 33 79 0 46-33 76-31 31-91 31-56 0-88-31t-32-76zm16-359q0-19 6.5-34.5T944 585q14-14 35-20t43-6q49 0 82 26 13 16 19.5 31.5t6.5 34.5q0 40-26 70-17 14-37 22.5t-45 8.5q-22 0-43-8.5T944 721q-26-30-26-70z"/></svg>