<svg xmlns="http://www.w3.org/2000/svg" viewBox="0 0 2048 2048"><path d="M0 803q0-142 36.5-272.5T140 287 300 80 507-80t244-102.5 272-36.5 273 36.5T1541-80t207.5 160 160 207 103 244 36.5 272q0 142-36.5 273t-103 245-160 207.5-207.5 160-245 103.5-273 37q-141 0-271.5-37T507 1688.5t-207-160T140 1321 36.5 1076 0 803zm750-117q0 30 6.5 57t16.5 54q9 27 22 51t32 40q17 18 38.5 34t46.5 28q26 9 53.5 15t59.5 6q9 0 16.5-.5t13.5-4.5q17 0 33-4l-207 313h226l191-299q9-16 20-32.5t20-32.5q10-15 18.5-31t13.5-34q16-36 23-78 6-19 8-39t2-43q0-33-6-64.5t-21-58.5q-24-56-67-94-19-17-46.5-34t-57.5-26q-29-10-62-16t-65-6q-34 0-67.5 6T946 409q-27 9-53 25.5T846 469q-23 19-38.5 42.5T778 563q-29 55-28 123zm187 7q0-29 8-53.5t30-46.5q19-19 46-27.5t57-8.5 56.5 8.5T1179 593q19 22 29.5 46.5T1219 693q0 55-40 98-18 21-45 30.5t-56 9.5q-30 0-57-10t-46-30q-22-21-30-45.5t-8-52.5z"/></svg>