<svg xmlns="http://www.w3.org/2000/svg" viewBox="0 0 2048 2048"><path d="M0 805q0-142 36.5-273T140 287.5t160-207 207-160 244.5-103T1024-219t272.5 36.5 244.5 103 207 160 160 207T2011.5 532t36.5 273-36.5 272.5-103.5 244-160 207-207 160-244.5 103.5-272.5 37-272.5-37T507 1688.5t-207-160-160-207T36.5 1077 0 805zm442.5 93q-3.5 23 2 46.5T465 989l250 336q17 23 43 36t55 13 54.5-13.5T910 1325l592-798q15-21 20.5-43.5t2-46-15.5-44-32-35.5q-21-15-44-20t-45.5-2-43.5 14.5-35 32.5l-496 667-154-207q-15-19-35.5-31T580 796.5t-46 2.5-44 20q-21 15-32.5 35.5t-15 43.5z"/></svg>