<svg xmlns="http://www.w3.org/2000/svg" viewBox="0 0 2048 2048"><path d="M0 805q0-142 36.5-273T140 287.5t160-207 207-160 244.5-103T1024-219t272.5 36.5 244.5 103 207 160 160 207T2011.5 532t36.5 273-36.5 272.5-103.5 244-160 207-207 160-244.5 103.5-272.5 37-272.5-37T507 1688.5t-207-160-160-207T36.5 1077 0 805zm834-540l63 777q2 47 35 81.5t81 37.5q26 2 50-6.5t43-24.5 31-38 14-50l63-777q3-39-11-75.5t-41-65-63.5-45.5-77.5-17q-39 0-74.5 17t-62 45.5-40 65T834 265zm63 1154q0 27 10 51t27 41 40 26.5 49 9.5 49.5-9.5 40.5-26.5 27.5-40.5 10.5-51.5v-25q0-26-10.5-49t-27.5-40-40.5-27.5-49.5-10.5-49 10.5-40 27.5-27 40-10 49v25z"/></svg>