<svg xmlns="http://www.w3.org/2000/svg" viewBox="0 0 1076 2048"><path d="M111 357q0-89 33.5-167.5t92-137 137-92T541-73q88 0 165.5 33.5t135 92 91 136.5T966 357q0 72-16 129t-42 102-56.5 81.5T792 738q-26 27-48 52.5T706 844t-25 62.5-9 79.5q0 29-10.5 53.5t-28.5 42-41.5 28T541 1120q-29 0-53.5-10.5t-43-28-28.5-42-10-53.5q0-85 18-150.5t46.5-117 63-90T599 558q25-29 45-52t32.5-45.5 19.5-48 7-55.5q0-34-13-64t-35.5-52.5T603 205t-62-13q-34 0-64 13t-52.5 35.5-35.5 52-13 64.5q0 26-10.5 50t-28 42-42 28.5T243 488q-27 0-51-10.5T149.5 449 121 407t-10-50zm268 1042q0-33 13-62.5t34.5-50.5 51.5-33.5 63-12.5q32 0 61 12.5t50.5 33.5 34 50.5T699 1399t-12.5 62-34 51-50.5 34.5-61 12.5q-33 0-63-12.5t-51.5-34.5-34.5-51-13-62z"/></svg>