<svg xmlns="http://www.w3.org/2000/svg" viewBox="0 0 2048 2048"><path d="M0 805q0-142 36.5-273T140 287.5t160-207 207-160 244.5-103T1024-219t272.5 36.5 244.5 103 207 160 160 207T2011.5 532t36.5 273q0 141-36.5 271.5t-103.5 244-160 207.5-207 160.5-244.5 103.5-272.5 37-272.5-37T507 1688.5 300 1528t-160-207.5-103.5-244T0 805zm626-312q0 24 9.5 45t25.5 36.5 36.5 24.5 44.5 9 45-9 36.5-24.5T848 538t9-45q0-29 11-54.5t30.5-45T943 363t55-11q29 0 54.5 11t45 30.5 30 45T1138 493t-5.5 50.5T1116 584t-28 39-40 44q-26 29-55.5 63.5t-54 79T898 911t-16 131q0 24 9.5 44.5T917 1123t36.5 25.5 44.5 9.5 45-9.5 36.5-25.5 24.5-36.5 9-44.5q0-40 8-69.5t22-54.5 32.5-47 41.5-46q25-27 52-58.5t49.5-71.5 36.5-89 14-113q0-77-29-144.5T1260 230t-118.5-80T998 121q-77 0-144.5 29t-118 80-80 118.5T626 493zm233 907q0 29 11 54t30 44 44 29.5 54 10.5 54-10.5 43.5-29.5 29.5-44 11-54-11-54.5-29.5-44.5-44-29.5T998 1261q-29 0-54 10.5t-44 29.5-30 44.5-11 54.5z"/></svg>