<svg xmlns="http://www.w3.org/2000/svg" viewBox="0 0 2048 2048"><path d="M0 805q0-142 36.5-273T140 287.5t160-207 207-160 244.5-103T1024-219t272.5 36.5 244.5 103 207 160 160 207T2011.5 532t36.5 273-36.5 272.5-103.5 244-160 207-207 160-244.5 103.5-272.5 37-272.5-37T507 1688.5t-207-160-160-207T36.5 1077 0 805zm512 383q0 25 9 49t29 42q18 19 42 28.5t48.5 9.5 48-9.5T730 1279l294-294 294 294q18 19 42 28.5t48.5 9.5 48-9.5 41.5-28.5q18-18 28-42t10-49-9.5-48-28.5-42l-292-293 292-294q18-18 28-42t10-49-9.5-48-28.5-42q-18-18-41.5-27.5t-48-9.5-48.5 9.5-42 27.5l-294 294-294-294q-18-18-41.5-27.5t-48-9.5-48.5 9.5-42 27.5q-19 18-28.5 41.5T512 420t9 49 29 42l293 294-293 293q-19 18-28.5 41.5T512 1188z"/></svg>