<svg xmlns="http://www.w3.org/2000/svg" viewBox="0 0 2048 2048"><path d="M0 805q0-142 36.5-273T140 287.5t160-207 207-160 244.5-103T1024-219t272.5 36.5 244.5 103 207 160 160 207T2011.5 532t36.5 273-36.5 272.5-103.5 244-160 207-207 160-244.5 103.5-272.5 37-272.5-37T507 1688.5t-207-160-160-207T36.5 1077 0 805zm353 0q0 26 10.5 49.5T391 895t40.5 27.5T481 933h415v414q0 26 10.5 50t27.5 41 40.5 27 49.5 10 49.5-10 40.5-27 27.5-40.5 10.5-50.5V933h415q26 0 49.5-10.5T1657 895t27.5-40.5T1695 805t-10.5-50-27.5-41-40.5-27-49.5-10h-415V262q0-26-10.5-49.5t-27.5-41-40.5-27.5-49.5-10-49.5 10-40.5 27.5-27.5 40.5-10.5 50v415H481q-26 0-49.5 10T391 714t-27.5 40.5T353 805z"/></svg>