<svg xmlns="http://www.w3.org/2000/svg" viewBox="0 0 2081 2048"><path d="M0 33Q0 6 10.5-18.5t28.5-43 42-29 52-10.5h480q27 0 51.5 11T707-61t28.5 42.5T746 33v479q0 27-10.5 52T707 607t-42.5 28.5T613 646t-52-10.5-43.5-28.5-28.5-43-10-52V318q-51 62-89.5 132.5T328 599q-6 21-8 31t-5 24q-9 48-46 77.5T185 761q-14 0-27-3-27-5-49-20.5T73 701t-19.5-46.5.5-53.5q6-29 18-75 27-98 74-188.5T257 167H133q-27 0-51.5-11T39 127.5 10.5 85 0 33zm65.5 984.5Q69 991 82 968.5t33.5-38.5 46.5-23q27-7 53.5-3.5t49 17 38.5 34 23 46.5q16 59 39 110 11 25 11 51.5t-9 50.5-27 43-43 31q-26 11-55 11-39 0-72-21t-50-58q-16-37-29-73.5T69 1071q-7-27-3.5-53.5zm291 485q-2.5-25.5 5-51T386 1405t41-33 50-14.5 51 5 47 24.5q23 19 45.5 36t49.5 32q24 14 39.5 35.5t21 46.5 2 51-17.5 50q-19 32-50 48.5t-64 16.5q-37 0-68-18-34-21-66.5-44t-63.5-48q-21-17-32.5-41t-14-49.5zM857 1682q2-27 14-50.5t31.5-40.5 45-25.5 52.5-6.5q15 2 28.5 2h66.5q27-1 52.5 8t44 26.5 30.5 41.5 13 51-8 52-26.5 43.5-41.5 30.5-52 13q-13 1-25 1.5t-25 .5q-19 0-38-1l-38-2q-27-2-51-14t-41-32-25.5-45-6.5-53zM923-86q0-27 10.5-51.5t29-43 43-28.5 51.5-10h12q27 1 51.5 13t41.5 30.5 26.5 44T1197-79q-1 26-12 49.5t-29 41-41.5 27T1065 48h-8q-27 0-51.5-11t-43-28.5-29-42T923-86zm409.5 1692q-1.5-27 6-51t25-44 41.5-33q16-9 31-18.5t30-18.5q24-15 50.5-19.5t51 1.5 47 20.5 36.5 37.5q15 23 19.5 49.5t-1 51.5-20.5 46.5-38 36.5q-39 26-83 49-29 15-62 15-37 0-68.5-19t-50.5-53q-13-24-14.5-51zM1364 15q3-26 17-50t35-40 46-23 51-4 50 16l14 8q24 14 39.5 35.5t21 47 2.5 51-18 49.5q-19 32-50 48.5t-65 16.5q-17 0-34.5-4.5T1439 151l-8-5q-24-14-40-35t-23-45.5-4-50.5zm310.5 1249q4.5-26 19.5-49 9-16 18-31.5t17-31.5q13-24 33.5-41t45-24.5 51.5-6 51 14.5 41 33.5 24.5 45 5.5 50.5-14 51q-11 22-23.5 43t-25.5 41q-19 30-49 46t-63 16q-40 0-72-22-23-15-38-37.5t-20.5-47-1-50.5zm19-892q-3.5-26 3-51t22-46.5T1758 239t49.5-17.5 50.5 3.5 47 22.5 36 39.5l6 12q14 24 17 50.5t-3.5 51.5-22.5 45.5-40 34.5q-23 13-48 17t-49.5-2.5-46-22T1715 431l-4-9q-14-24-17.5-50zM1813 843q0-5 .5-12.5t.5-14.5v-17q0-27 10-52t28.5-42.5 43-28.5 51.5-11 52 11 43.5 28.5 28.5 42 10 52.5q-1 10-1 22v35q-1 26-12.5 49.5t-29 40.5-41.5 27-51 10h-5q-27-1-51.5-13t-42-31-27-43.5-7.5-52.5z"/></svg>