<svg xmlns="http://www.w3.org/2000/svg" viewBox="0 0 2048 2048"><path d="M0 805q0-141 36.5-272T140 288.5 300 81 507-79.5t244.5-103T1024-219t272.5 36.5 244.5 103T1748 81t160 207.5 103.5 244T2048 805t-36.5 272.5-103.5 244-160 207-207 160-244.5 103.5-272.5 37-272.5-37T507 1688.5t-207-160-160-207T36.5 1077 0 805zm383-468q0 37 25 61.5t61 24.5h80q-41 51-71.5 109T430 653q-2 9-4 15t-3 10.5-2.5 10T418 701q-6 35 12.5 64t54.5 36q11 2 17 2 30 0 53.5-19t29.5-49q2-9 3.5-16t4.5-20q29-99 97-179v125q0 35 24.5 59.5T775 729q37 0 61.5-24.5T861 645V337q0-35-25.5-59.5T775 253H469q-35 0-60.5 24.5T383 337zm44 664q13 50 34 95 10 24 31.5 37.5T538 1147q18 0 36-6 32-15 45-47.5t-2-66.5q-8-17-13.5-34.5T592 957q-5-17-15.5-30.5t-25-21.5-31-10-33.5 2q-33 9-51 39.5t-9 64.5zm184.5 276.5Q615 1313 642 1336q38 33 83 58 19 11 43 12 22 0 41.5-11t31.5-30q9-15 11.5-31.5T851 1301t-14.5-30-25.5-23q-16-10-30.5-20.5T751 1205q-27-23-62-19.5t-58 30.5q-23 26-19.5 61.5zM933 1393q-3 35 19 62.5t59 29.5q13 1 24.5 1.5t23.5.5q9 0 17.5-.5t16.5-.5q17-1 32.5-8.5t26-19.5 17-28 5.5-33q-2-35-28-59t-61-23h-43.5l-17.5-1q-35-2-62 21t-29 58zm42-1131q0 35 24.5 60t59.5 25h6q33 0 57.5-24t27.5-58q1-35-23.5-61t-59.5-28h-8q-35 0-59.5 24.5T975 262zm265 1049.5q-10 33.5 6 65.5 13 22 32.5 34t43.5 12q18 0 39-9 14-8 27.5-15.5t26.5-16.5q15-9 24-23.5t12.5-30.5 1-32.5-12.5-31.5q-19-30-53.5-37.5T1322 1239q-21 14-40 23-32 16-42 49.5zm19-953q10 33.5 40 51.5l5 3q10 7 21.5 9.5t23.5 2.5q22 0 41-11t32-30q9-15 11-31.5t-2-32.5-14-30.5-25-23.5l-8-4q-31-18-65-8.5t-52 40.5-8 64.5zm196.5 799.5q7.5 34 37.5 53 22 14 46 14 21 0 40.5-9.5t31.5-29.5q8-13 15.5-26.5t15.5-26.5q16-32 5.5-66t-41.5-50q-32-16-66-5.5t-50 42.5q-9 19-23 40-19 30-11.5 64zm11-603.5Q1469 571 1478 586l3 6q22 35 54.5 41.5t62.5-9.5q15-8 25-21.5t14.5-29.5 2.5-33-10-33l-5-8q-9-15-22.5-24.5t-29.5-14-33-2-31 11.5q-16 9-26 22.5t-14.5 29.5-2 32.5zM1544 856q-2 35 22 61.5t59 27.5h5q33 0 57.5-23.5T1714 864v-23q0-7 1-14 0-35-25-60t-60-25-60.5 25-25.5 60v29z"/></svg>