<svg xmlns="http://www.w3.org/2000/svg" viewBox="0 0 2048 2048"><path d="M0 805q0-142 36.5-273T140 287.5t160-207 207-160 244.5-103T1024-219t272.5 36.5 244.5 103 207 160 160 207T2011.5 532t36.5 273-36.5 272.5-103.5 244-160 207-207 160-244.5 103.5-272.5 37-272.5-37T507 1688.5t-207-160-160-207T36.5 1077 0 805zm415 264q0 26 9 49.5t24.5 40.5 36.5 27.5 45 10.5h988q48 0 82-37 16-18 24.5-41.5t8.5-49.5-9-50-24.5-41-36.5-27-45-10H530q-24 0-45 10t-36.5 27-24.5 40.5-9 50.5zm0-528q0 26 9 49.5t24.5 40.5 36.5 27.5 45 10.5h988q24 0 45-10.5t37-27.5q16-18 24.5-41t8.5-49-9-50-24.5-41-36.5-27-45-10H530q-24 0-45 10t-36.5 27-24.5 40.5-9 50.5z"/></svg>