<svg xmlns="http://www.w3.org/2000/svg" viewBox="0 0 1630 2048"><path d="M0 742q0-32 12-60t33-49.5T94.5 599t60.5-12h1320q32 0 60 12t49.5 33.5 34 49.5 12.5 60q0 33-12 61.5t-34 50.5q-22 21-50.5 32.5T1475 898H155q-32 0-60.5-12T45 852.5 12 803 0 742zm627 551q0-39 15-73t41-59 59.5-40 72.5-15 73 15 60 40 40.5 59 14.5 73-14.5 73-40.5 59-60 39.5-73 14.5-72.5-14.5T683 1425t-41-59.5-15-72.5zm0-1101q0-39 15-72.5t41-59T742.5 21 815 7t73 14 60 39.5 40.5 59T1003 192q0 38-14.5 72T948 323.5t-60 40-73 14.5-72.5-14.5-59.5-40-41-59.5-15-72z"/></svg>