<svg xmlns="http://www.w3.org/2000/svg" viewBox="0 0 2048 2048"><path d="M0 805q0-142 36.5-273T140 287.5t160-207 207-160 244.5-103T1024-219t272.5 36.5 244.5 103 207 160 160 207T2011.5 532t36.5 273-36.5 272.5-103.5 244-160 207-207 160-244.5 103.5-272.5 37-272.5-37T507 1688.5t-207-160-160-207T36.5 1077 0 805zm353 0q0 26 10.5 49.5T391 895t40.5 27.5T481 933h1086q26 0 49.5-10.5T1657 895q38-35 38-90 0-26-10.5-50t-27.5-41-40.5-27-49.5-10H481q-26 0-49.5 10T391 714t-27.5 40.5T353 805zm518 452q0 32 12 60t32.5 49 48.5 33 60 12 60-12 48.5-33 32.5-49 12-60-12-60-32.5-48.5-48.5-32.5-60-12-60 12-48.5 32.5T883 1197t-12 60zm0-906q0 32 12 60t32.5 49 48.5 33 60 12 60-12 48.5-33 32.5-49 12-60-12-60-32.5-48.5T1084 210t-60-12-60 12-48.5 32.5T883 291t-12 60z"/></svg>