<svg xmlns="http://www.w3.org/2000/svg" viewBox="0 0 1877 2048"><path d="M0 459q0-81 30.5-151.5t83-122.5 123-82.5T387 72t150.5 30.5T660 185t82.5 122.5T773 459t-30.5 151.5-82.5 123-122.5 83T387 847t-150.5-30.5-123-83-83-122.5T0 459zm200 0q0 39 15 73.5t40.5 60 59 40.5 72.5 15q38 0 72.5-15t59.5-40.5 40-60 15-73.5q0-40-15-74t-40-60-59.5-40.5T387 270q-39 0-72.5 14.5t-59 40.5-40.5 60-15 74zm278 989.5q-12-43.5 10-83.5l719-1259q10-19 28-32t38.5-19 42.5-3.5 41 13.5q21 11 33.5 29t18.5 38.5 3.5 42.5-13.5 41L682 1475q-16 26-42 40.5t-55 14.5q-26 0-56-15-39-23-51-66.5zm628-278.5q0-80 30.5-150.5t82.5-124 122-83.5 150-30 151 30 123 83.5 82.5 124T1878 1170q0 81-30.5 151.5T1765 1445t-123 83.5-151 30.5-150-30.5-122-83.5-82.5-123.5T1106 1170zm199 0q0 39 15 73.5t40 60 58.5 40.5 72.5 15 73-15 59.5-40.5 40.5-60 15-73.5-15-73-40.5-60-59.5-40.5-73-14.5-72.5 14.5-58.5 40.5-40 60-15 73z"/></svg>