<svg xmlns="http://www.w3.org/2000/svg" viewBox="0 0 2048 2048"><path d="M0 805q0-142 36.5-273T140 287.5t160-207 207-160 244.5-103T1024-219t272.5 36.5 244.5 103 207 160 160 207T2011.5 532t36.5 273-36.5 272.5-103.5 244-160 207-207 160-244.5 103.5-272.5 37-272.5-37T507 1688.5t-207-160-160-207T36.5 1077 0 805zm393-232q0 55 21 100 21 47 55 84 35 35 83 56 46 21 101 20 55 0 101-20 49-21 83-56 35-35 56-84 21-46 20-100 0-55-20-102-21-48-56-84-33-35-83-56-47-21-101-20-55 0-101 20-48 21-83 56-34 37-55 84t-21 102zm135 0q0-54 37-91t88-36q52-1 89 36 37 39 36 91 0 50-36 89-35 37-89 36-53 0-88-36-37-37-37-89zm186.5 664.5Q723 1267 750 1282q17 10 36 11 19 0 37-10t28-28l482-846q16-26 7-56t-35-46-56-7-46 35l-481 846q-16 27-7.5 56.5zM1135 1049q0 54 20 102 22 50 56 83 35 37 83 57 46 21 101 21 54 0 101-21 46-19 83-57 33-33 55-83 21-48 21-102t-21-102-56-83q-17-17-37.5-31.5T1496 808q-47-21-101-21-56 0-101 21-46 19-83 56-35 35-56 83t-20 102zm135 0q0-54 36-90 36-37 89-37 51 0 88 37t37 90q0 55-37 92t-88 36q-53 0-89-36-37-37-36-92z"/></svg>