<svg xmlns="http://www.w3.org/2000/svg" viewBox="0 0 996 2048"><path d="M1 1149q0-29 11-53.5t29-43 43-29 53-10.5h1q27 0 52.5 10.5t44 29 29 43.5 10.5 54q-1 23 9.5 39.5T305 1217q33 33 83 51.5t108 18.5h1q49 0 90.5-12.5t71-32 46-43.5 17.5-47q0-22-10-40t-22-30q-33-32-84-50t-109-18q-112-1-212-39T114 865q-54-55-82.5-122.5T5 603q0-71 26.5-133.5t75-113 115-86.5T367 217l1-154q0-57 39-93.5T504-73q29 0 53.5 11T600-32.5t29 44T640 65l-1 152q56 14 107 36t93 56q77 57 117.5 135T997 608q0 29-11 54t-29.5 43-43 28.5T861 744q-27 0-52-11t-43.5-29-29-43.5T726 606q0-27-18.5-49T675 523q-33-25-78.5-38.5T502 471h-1q-50 0-91.5 12t-71 31.5T292 558t-17 47 11 41 21 28q33 33 83 51.5T498 744q113 0 213 38.5T882 891q55 55 83.5 122.5T994 1153q0 71-27.5 134t-76 113.5T776 1487t-145 54l-1 154q0 27-11 51.5t-30 43-43.5 29T494 1829h-1q-27 0-52-10.5t-43.5-29-29-43.5-10.5-53l1-154q-72-16-136-49t-112-82q-55-55-83-122T1 1149z"/></svg>