<svg xmlns="http://www.w3.org/2000/svg" viewBox="0 0 2048 2048"><path d="M0 805q0-142 36.5-273T140 287.5t160-207 207-160 244.5-103T1024-219t272.5 36.5 244.5 103 207 160 160 207T2011.5 532t36.5 273-36.5 272.5-103.5 244-160 207-207 160-244.5 103.5-272.5 37-272.5-37T507 1688.5t-207-160-160-207T36.5 1077 0 805zm653 201q0 54 21 103.5t61 89.5q37 37 83.5 61.5T920 1297l-1 114q0 42 29 72t71 30h2q41 0 70.5-29t29.5-71v-115q59-13 108.5-40t85.5-65 56.5-84.5 21.5-99.5q0-54-21.5-104t-61.5-90q-53-54-127-82.5T1024 704q-43 0-81-13.5T881 653q-8-9-16-22t-7-29q0-18 12-35.5t34.5-32T958 511t67-9h1q37 0 70.5 10t58.5 29q10 9 23.5 24.5T1192 602q0 42 29.5 72t72.5 31q42 0 71.5-29.5T1395 603q0-64-30.5-122T1278 379q-33-24-71-40.5t-79-26.5l1-113q0-42-29-72t-71-31q-43 5-72.5 32T927 197l-1 114q-58 13-108 40t-86 65-56 84.5-20 99.5q-1 55 20 104.5t61 89.5q53 54 127 83t159 29q43 0 81 14t62 37q9 9 17 22t7 29q0 17-12 35.5t-34.5 32.5-53.5 23.5-67 9.5h-1q-43 0-81-14t-62-38q-8-9-16-21.5t-7-28.5q0-42-29.5-71.5T755 905h-1q-42 0-71 30t-30 71z"/></svg>