<svg xmlns="http://www.w3.org/2000/svg" viewBox="0 0 2010 2048"><path d="M0 1421v-295q0-77 29-144t79-116.5T224.5 787 368 758h1275q75 0 142.5 29t117 78.5T1981 982t29 144v295q0 75-29 142t-78.5 116.5T1786 1758t-143 29H368q-77 0-143.5-29T108 1679.5 29 1563 0 1421zm283-434h119v590h115V987h118v-99H283v99zm98-1165h130l83 303h8l80-303h132L664 266v315H535V280zm299 1672q0 46 18 68 17 23 53 23 27 0 59-16 31-17 59-48v56h101v-508H869v386q-7 9-14.5 15.5T838 1482q-17 10-29 11-16 0-20-8-7-8-7-27v-389H680v425zM823 440V149q0-64 46-103T993 7q71 0 117 40 46 42 45 105v289q0 72-44 113-45 41-124 41-72 0-120-42-45-42-44-113zm118 10q0 23 12 36 13 13 34 12 23 0 38-12 14-14 14-36V145q0-19-15-30-13-11-37-11-22 0-33 11-14 10-13 30v305zm106 1127h103v-39q21 24 43 35 13 6 25.5 8.5t28.5 2.5q46 0 68-30 24-27 24-82v-282q0-63-25-95-26-33-74-33-22 0-47 12-22 11-43 36V888h-103v689zm103-96v-318q13-13 21-14 8-6 21-6 22 0 32 12 11 17 11 40v263q0 23-9 35-8 11-27 11-11 0-25-6-6-2-12.5-6.5T1150 1481zm98-992V21h114v429q0 21 7 29 8 9 24 9 14 0 32-11 17-11 36-31V21h114v560h-114v-62q-16 17-33 30t-34 22q-36 19-66 19-39 0-61-25-19-26-19-76zm145 945q0 73 39 116 39 41 109 41 75 0 113-39 39-40 39-118v-26h-106v23q0 45-10 58t-35 13q-24 0-35-15-9-14-9-56v-96h195v-130q0-72-38-110-38-39-108-39-69 0-110 41-43 40-44 108v229zm105-178v-51q0-34 11-46 10-14 34-14t34 14 10 46v51h-89z"/></svg>