<svg xmlns="http://www.w3.org/2000/svg" viewBox="0 0 1755 2048"><path d="M0 1682V-73h1755v1755H0zm221-475q0 50 18.5 93.5t51 76 76 51.5 94.5 19h835q49 0 92.5-19t76-51.5 51.5-76 19-93.5v-193q0-49-19-93t-51.5-76-76-51-92.5-19H461q-50 0-94 19t-76.5 51-51 76-18.5 93v193zm185-284v-65h231v65h-78v387h-76V923h-77zm64-761l99 299v197h86V451l97-289h-86l-51 198h-5l-55-198h-85zm195 1093V977h66v255q0 13 4 17 6 5 15 5 5 0 8.5-1.5t9.5-5.5q13-7 21-18V977h67v333h-67v-37q-9 10-18.5 17.5T750 1304q-19 10-38 10-24 0-35-15t-12-44zm94-689q0 47 28 74 29 27 79 27 49 0 81-26 29-27 29-74V377q0-41-31-67-30-27-75-28-51 0-81 27-30 25-30 66v191zm76 7V373q0-10 8-19 9-8 23-8 16 0 24 8 9 7 9 19v200q0 16-9 22-8 8-24 8-15 0-23-8t-8-22zm70 737V858h66v147q13-14 29-24 19-8 32-8 31 0 48 21 16 22 16 63v184q0 33-16 55-15 18-45 18-16 0-35-8-16-7-29-23v27h-66zm66-64q11 10 18 12 7 3 16 4 11 0 18-7 5-9 4-23v-173q0-16-5-25-8-9-22-9-8 0-14 5-6 1-15 10v206zm66-648q0 34 13 49 11 17 39 17 18 0 44-13 21-11 43-33v40h74V291h-74v278q-13 15-24 22-6 2-11.5 4.5t-9.5 2.5q-10 0-16-6-3-7-3-19V291h-75v307zm94 618v-150q0-43 29-71 26-26 72-26 48 0 70 25 25 25 25 72v85h-127v63q0 29 6 36 8 10 23 11 16 0 24-10 2-5 4-13.5t2-23.5v-15h68v17q0 53-25 77-24 26-75 26-46 0-69-28-26-29-27-75zm69-117h59v-33q0-11-2-18t-6-13q-7-9-22-9-13 0-22 9-7 8-7 31v33z"/></svg>