<svg xmlns="http://www.w3.org/2000/svg" viewBox="0 0 1554 2048"><path d="M0 225q0-38 13.5-69T52 101.5t60-37T190 51q42 0 75.5 13.5t57.5 37 38 54.5 15 69q0 35-13 66.5t-37.5 55-60 37.5-79.5 14h-2q-41 0-75.5-14T50 346.5 13 292 0 225zm21 1311V535h332v1001H21zm517 0q1-255 1-465V731l-.5-126.5-.5-69.5h332v140q0 3-3 4h3v-4q17-25 41-54t59.5-53.5T1055 527t115-16q82 0 152.5 27.5t122 83T1525 762t29 200v574h-332v-536q0-51-10-92.5t-30.5-71T1129 791t-78-16q-34 0-61.5 10T941 812.5t-36 39-24 43.5q-6 16-8.5 37t-2.5 44v560H538z"/></svg>