<svg xmlns="http://www.w3.org/2000/svg" viewBox="0 0 1802 2048"><path d="M0 1370q23 2 44.5 4t44.5 2q130 0 247-41.5T547 1217q-61-1-115.5-20.5T332 1143t-79-80.5T202 961q34 7 70 7 50 0 97-14-64-13-117.5-46T158 827 95.5 719 73 592v-5q38 21 79.5 33t87.5 14q-74-50-118.5-130.5T77 326q0-101 49-185 69 83 153 151.5t181 119 205 80T888 527q-10-41-10-85 0-77 29-143.5t79.5-117T1104 102t144-29q80 0 149 31t121 86q63-13 121.5-35T1752 99q-21 65-62.5 118t-99.5 87q114-13 212-58-77 112-185 192 1 13 1 24v23q0 122-30.5 247.5t-90.5 242-149.5 219-206 178.5T881 1492t-314 44q-157 0-299.5-43.5T0 1370z"/></svg>