<svg xmlns="http://www.w3.org/2000/svg" viewBox="0 0 1755 2048"><path d="M0 1682V-73h1755v1755H0zm240-477q88 56 189 86.5t212 30.5q120 0 222-30.5t184-85 145.5-127 106-155 64-171T1384 578v-33q78-58 130-136-70 32-149 41 40-24 69.5-61t44.5-83q-78 46-166 63-37-38-85.5-60T1122 287q-54 0-101.5 20.5t-83 56-56 83.5T861 549q0 31 6 59-163-9-302-81.5T329 335q-35 61-35 131 0 69 32 125.5t84 91.5q-64-1-119-32v4q0 47 16 89.5t44 76.5 67 57.5 84 32.5q-34 9-70 9-13 0-25-1t-24-4q13 39 36.5 72.5T475 1045t70.5 37.5T627 1096q-67 54-149.5 83T303 1208q-32 0-63-3z"/></svg>