<svg xmlns="http://www.w3.org/2000/svg" viewBox="0 0 1755 2048"><path d="M0 1682V-73h1755v1755h-571q-35 0-48.5-16t-13.5-34q0-23 .5-90t.5-157q0-63-18-104t-42-62q75-8 148.5-30t131.5-70.5 94-131.5 36-212q0-74-24.5-133.5T1381 534q3-8 8.5-29.5t8-52-2-70.5-22.5-87q-24-5-60 2-30 7-76.5 27T1125 387q-110-30-226-29-115 0-225 29-65-43-111-63t-76-27q-35-7-60-2-18 47-23 87t-3 70.5 8 52 9 29.5q-43 48-67.5 107.5T326 775q0 129 36 212t94 131.5 131.5 70.5 148.5 30q-19 17-36 47t-22 73q-19 9-51 18t-69 5.5-74-24.5-68-73q-14-24-34-44-17-17-43.5-31.5T279 1173q-24 1-34 6-9 6-6.5 17t33.5 31q16 9 34 27 15 15 33 40.5t34 64.5q18 49 57 81 17 14 40 25.5t52.5 18 68 6T675 1479q0 57 1 97t1 56q0 18-14 34t-48 16H0z"/></svg>