<svg xmlns="http://www.w3.org/2000/svg" viewBox="0 0 1633 2048"><path d="M0 743q0-113 29-217t82.5-195T239 165 404 37t195-82 217-29q112 0 216.5 29T1228 37t166 128 128 166 82 195.5 29 216.5-29 216.5-82 195.5-128 165-166 127.5-195.5 82.5-216.5 29q-169 0-317.5-64T239 1320 64 1060.5 0 743zm169 81q11 86 42.5 163t80.5 142.5T405 1247t139 87q-56-96-90.5-225.5T411 824H169zm0-163h241q6-150 35-277t78-224q-71 37-131.5 88t-106 116-76 139.5T169 661zm404 0h486q-6-134-31.5-240t-60-179.5-75.5-113T816 89q-37 0-77 39.5t-75 113T603.5 421 573 661zm2 163q8 128 33.5 229t60 171.5 74 107.5 73.5 37 73.5-37 74-107.5 60-171.5 33.5-229H575zm514 510q75-34 138.5-86.5t112.5-118 80-142.5 43-163h-242q-8 155-42.5 284.5T1089 1334zm20-1174q49 97 78 224t35 277h241q-10-82-40.5-157t-76-140T1240 248t-131-88z"/></svg>