<svg xmlns="http://www.w3.org/2000/svg" viewBox="0 0 2048 2048"><path d="M0 805q0-142 36.5-273T140 287.5t160-207 207-160 244.5-103T1024-219t272.5 36.5 244.5 103 207 160 160 207T2011.5 532t36.5 273q0 141-36.5 271.5t-103.5 244-160 207.5-207 160.5-244.5 103.5-272.5 37-272.5-37T507 1688.5 300 1528t-160-207.5-103.5-244T0 805zm410 0q0 85 22 163t62 146 96.5 124.5T715 1335t146 61.5 163 21.5 163.5-21.5T1334 1335t124-96.5 96.5-124.5 62.5-146.5 22-162.5q0-127-48.5-239t-132-195.5-195.5-132-239-48.5q-85 0-163 21.5t-146 62T590.5 370 494 494t-62 147-22 164zm127 60h182q7 118 32.5 215t66.5 169q-57-26-104.5-65t-84-88.5-60.5-108T537 865zm0-122q16-125 87.5-223.5T803 366q-37 73-58.5 168.5T719 743H537zm304 0q5-101 23.5-180.5t45-134.5 57-85 57.5-30 57.5 30 57 85 45 134.5T1207 743H841zm1 122h364q-6 96-25.5 172t-45 129-55.5 81-56 28-55.5-28-55.5-81-45.5-129T842 865zm388 384q41-72 66.5-169t32.5-215h182q-8 64-32 122.5t-60.5 108-84.5 88.5-104 65zm15-883q107 55 178.5 153.5T1511 743h-181q-6-113-27-208.5T1245 366z"/></svg>