<svg xmlns="http://www.w3.org/2000/svg" viewBox="0 0 2048 2048"><path d="M0 805q0-142 36.5-273T140 287.5t160-207 207-160 244.5-103T1024-219q141 0 271.5 36.5t244.5 103 207.5 160 160.5 207T2011.5 532t36.5 273-36.5 272.5-103.5 244-160.5 207-207.5 160-244.5 103.5-271.5 37q-142 0-272.5-37T507 1688.5t-207-160-160-207T36.5 1077 0 805zm461 370q0 9 5.5 14t13.5 5h1087q9 0 14-5.5t5-13.5V379q0-8-5.5-13.5T1567 360l-1087 1q-19 0-19 20v794zm257-193v-67h517v67H718zm0-110v-65h517v65H718zm0-109v-66h517v66H718zm585-86V519h156v158h-156z"/></svg>