<svg xmlns="http://www.w3.org/2000/svg" viewBox="0 0 2048 2048"><path d="M0 805q0-142 36.5-273T140 287.5t160-207 207-160 244.5-103T1024-219q141 0 271.5 36.5t244.5 103 207.5 160 160.5 207T2011.5 532t36.5 273q0 141-36.5 271.5t-103.5 244-160.5 207.5-207.5 160.5-244.5 103.5-271.5 37q-142 0-272.5-37T507 1688.5 300 1528t-160-207.5-103.5-244T0 805zm405 186q-1 61 32 118 15 24 30 40l341-197q-7-23-19-47-15-26-35-45t-43-31q48-40 104.5-80T937 672q62-37 123-65.5t119-49.5q-2 56 29 106 6 13 13.5 22t16.5 18l340-197q-3-13-7.5-24t-11.5-23q-16-27-37-50t-49-35q-47-23-111.5-25T1217 366t-172.5 58.5T850 522l-3 3-2 1q-102 59-182 119.5t-136.5 120T439 882t-34 109zm101 217l30 51 334-193-30-50zm772-446l29 52 335-193-29-53z"/></svg>