<svg xmlns="http://www.w3.org/2000/svg" viewBox="0 0 877 2048"><path d="M0 1367V219q0-35 13-65.5t36-53 54-36T169 51h540q35 0 66 13.5t53.5 36 36 53T878 219v1148q0 35-13.5 66t-36 54-53.5 36-66 13H169q-35 0-66-13t-54-36-36-54-13-66zm107-189q0 16 10.5 26.5T143 1215h608q16 0 26-10.5t10-26.5V369q0-15-10-25.5T751 333H143q-15 0-25.5 10.5T107 369v809zm171-951q0 15 9.5 25t24.5 10h270q15 0 24.5-10t9.5-25q0-14-9.5-23.5T582 194H312q-15 0-24.5 10t-9.5 23zm101 1117q0 27 19.5 48t48.5 21 48-21 19-48q0-29-19.5-48t-47.5-19q-29 0-48.5 19t-19.5 48z"/></svg>