<svg xmlns="http://www.w3.org/2000/svg" viewBox="0 0 2048 2048"><path d="M0 805q0-142 36.5-273T140 287.5t160-207 207-160 244.5-103T1024-219t272.5 36.5 244.5 103 207 160 160 207T2011.5 532t36.5 273q0 141-36.5 271.5t-103.5 244-160 207.5-207 160.5-244.5 103.5-272.5 37-272.5-37T507 1688.5 300 1528t-160-207.5-103.5-244T0 805zm662 474q0 29 10.5 54.5T702 1378t44 29.5 55 10.5h447q29 0 54.5-10.5t44.5-29.5 29.5-45 10.5-54V329q0-29-10.5-54.5T1347 230t-44.5-29.5T1248 190H801q-30 0-55 10.5T702 230t-29.5 45-10.5 54v950zm88-156V453q0-13 8.5-21.5T779 423h503q13 0 21.5 8.5t8.5 21.5v670q0 13-8.5 21.5t-21.5 8.5H779q-13 0-21-8.5t-8-21.5zm141-787q0-13 8-21t20-8h224q11 0 19 8t8 21-8 20-19 7H919q-11 0-19.5-7t-8.5-20zm84 923q0-23 16.5-39.5t39.5-16.5 39.5 17 16.5 39q0 23-16.5 39.5T1031 1315t-39.5-16.5T975 1259z"/></svg>