<svg xmlns="http://www.w3.org/2000/svg" viewBox="0 0 1531 2048"><path d="M0 1296V617q0-49 21.5-92T81 449.5t88-52T277 377V119q0-27 20-47.5T344 51h651q3 0 11 1.5t16 4.5 13 7.5 8 6.5l316 316q7 7 15 23 3 7 3.5 14t.5 11v180h87q29 0 47.5 20t18.5 47v788q0 29-18.5 47.5T1465 1536H283q-58 0-110-19t-90-51.5-60.5-76T0 1296zm133 0q0 22 12 41.5t32.5 34 48 23 57.5 8.5 57.5-8.5 48-23 32.5-34 12-41.5V617q0-22-12-41t-32-34-47.5-23.5T283 510t-58 8.5-47.5 23.5-32.5 34-12 41v679zm277-894q69 30 112 86.5T566 615h679V502H995q-27 0-46.5-20T929 435V185H410v217zm326 847q0 23 16 38.5t37 15.5q23 0 38-15.5t15-38.5q0-22-15.5-37t-37.5-15q-21 0-37 15t-16 37zm0-175q0 23 16 38.5t37 15.5q23 0 38-15.5t15-38.5q0-22-15.5-37t-37.5-15q-21 0-37 15.5t-16 36.5zm0-173q0 22 16 37.5t37 15.5q23 0 38-16t15-37q0-22-15.5-38T789 847q-21 0-37 16t-16 38zm206 348q0 23 14.5 38.5T994 1303t38-15.5 15-38.5q0-22-15-37t-38-15-37.5 15-14.5 37zm0-175q0 23 14.5 38.5T994 1128t38-15.5 15-38.5q0-22-15-37t-38-15-37.5 15.5T942 1074zm0-173q0 22 14.5 37.5T994 954t38-16 15-37q0-22-15-38t-38-16-37.5 16-14.5 38zm205 348q0 23 15 38.5t38 15.5 38.5-15.5 15.5-38.5q0-22-15.5-37t-38.5-15-38 15-15 37zm0-175q0 23 15 38.5t38 15.5 38.5-15.5 15.5-38.5q0-22-15.5-37t-38.5-15-38 15.5-15 36.5zm0-173q0 22 15 37.5t38 15.5 38.5-16 15.5-37q0-22-15.5-38t-38.5-16-38 16-15 38z"/></svg>