<svg xmlns="http://www.w3.org/2000/svg" viewBox="0 0 2048 2048"><path d="M0 805q0-142 36.5-273T140 287.5t160-207 207-160 244.5-103T1024-219t272.5 36.5 244.5 103 207 160 160 207T2011.5 532t36.5 273-36.5 272.5-103.5 244-160 207-207 160-244.5 103.5-272.5 37-272.5-37T507 1688.5t-207-160-160-207T36.5 1077 0 805zm539 595q0 8 6 13.5t14 5.5h929q9 0 15-5t6-14V562h-352q-9 0-15-5.5t-6-13.5V191H559q-9 0-14.5 5.5T539 210v1190zm196-229v-83h578v83H735zm0-192v-83h578v83H735zm0-193v-82h578v82H735zm27-292q0-34 24-58.5t59-24.5q34 0 58 24t24 59q0 34-24 58t-58 24-58.5-24-24.5-58zm477-35h241l-241-241v241z"/></svg>