<svg xmlns="http://www.w3.org/2000/svg" viewBox="0 0 1268 2048"><path d="M0 1464V0q0-30 21-51.5T72-73h777q18 0 32 7.5T902-51l112.5 112.5 85 85L1161 208l42 41 46 46q8 9 14 22t6 30v1117q0 30-21 51t-51 21H72q-30 0-51-21t-21-51zm146-73h979V419H849q-30 0-51-21t-21-51V73H146v1318zm119-351V568q0-14 8.5-22.5T295 537h108q29 0 49 21t20 49v158q0 29-20 48.5T403 833h-80v207q0 13-8.5 22t-19.5 9q-13 0-21.5-9t-8.5-22zm58-265h80q9 0 10-10V607q0-9-10-9h-80v177zm208 265V568q0-14 8-22.5t21-8.5h105q43 0 73 35t30 85v295q0 24-8 45.5t-21.5 38.5-32.5 26-41 9H560q-13 0-21-9t-8-22zm59-29h75q17 0 31-17.5t14-41.5V657q0-24-14-41.5T665 598h-75v413zm237 29V568q0-14 9-22.5t21-8.5h117q13 0 22 8.5t9 22.5q0 13-9.5 21.5T974 598h-87v177h87q13 0 22 8.5t9 19.5q0 13-9.5 21.5T974 833h-87v207q0 13-8.5 22t-21.5 9-21.5-9-8.5-22z"/></svg>