<svg xmlns="http://www.w3.org/2000/svg" viewBox="0 0 2048 2048"><path d="M0 805q0-142 36.5-273T140 287.5t160-207 207-160 244.5-103T1024-219t272.5 36.5 244.5 103 207 160 160 207T2011.5 532t36.5 273-36.5 272.5-103.5 244-160 207-207 160-244.5 103.5-272.5 37-272.5-37T507 1688.5t-207-160-160-207T36.5 1077 0 805zm539 595q0 8 6 13.5t14 5.5h929q9 0 15-5t6-14V562h-352q-9 0-15-5.5t-6-13.5V191H559q-9 0-14.5 5.5T539 210v1190zm126-229V712q0-13 8-21t21-8h105q27 0 47 19.5t20 48.5v152q0 27-20 47t-47 20h-77v201q0 11-8 20t-20 9q-13 0-21-8.5t-8-20.5zm57-258h77q10 0 10-10V751q0-10-10-10h-77v172zm201 258V712q0-13 8-21t21-8h101q21 0 39 9.5t31.5 25 21.5 36 8 44.5v287q0 24-8 45t-21.5 36.5-32 24.5-38.5 9H952q-13 0-21-8.5t-8-20.5zm58-29h72q17 0 29.5-17.5t12.5-39.5V798q0-23-12.5-40t-29.5-17h-72v401zm229 29V712q0-13 8-21t21-8h114q13 0 21 8t8 21-8 21-21 8h-86v172h86q13 0 21 8t8 21-8 20.5-21 7.5h-86v201q0 11-7.5 20t-20.5 9-21-8.5-8-20.5zm29-712h241l-241-241v241z"/></svg>