<svg xmlns="http://www.w3.org/2000/svg" viewBox="0 0 1268 2048"><path d="M0 1463V0q0-31 21-52t52-21h776q17 0 31 7t22 13q63 64 112 113t85 85.5 61 61.5l42 42 46 46q9 9 15 22t6 29v1117q0 31-21 52t-51 21H73q-31 0-52-21t-21-52zm146-73h977V419H849q-30 0-51-21t-21-51l-1-274H146v1317zm193-657q0-29 22-51l11-11 26-26 36-36 40-41q48-48 110-109 21-22 51.5-22t49.5 22q63 63 112 111l41 41 35.5 36 26.5 25 10 10q19 22 19 51t-19 51q-23 22-52 22t-51-22q-1-1-16.5-16T755 734q-22-21-49-49v510q0 30-21 52t-51 22-51-22-21-52V685l-99 99q-22 22-51.5 22T361 784q-22-22-22-51z"/></svg>