<svg xmlns="http://www.w3.org/2000/svg" viewBox="0 0 2048 2048"><path d="M0 805q0-142 36.5-273T140 287.5t160.5-207T508-79.5t244-103 272-36.5 272.5 36.5 244.5 103 207 160 160 207T2011.5 532t36.5 273q0 141-36.5 271.5t-103.5 244-160 207.5-207 160.5-244.5 103.5-272.5 37q-141 0-271.5-37T508 1688.5 300.5 1528 140 1320.5t-103.5-244T0 805zm539 594q0 8 6 13.5t15 5.5h929q9 0 14.5-5.5t5.5-14.5V562h-352q-8 0-14-5.5t-6-14.5V190H559q-8 0-14 5.5t-6 14.5v1189zm260-593q0-23 16-39l87-87 83-83q16-16 39-17t39 15l84 85q16 16 31 31.5t27 27.5l20 20 8 8q16 16 16 39t-16 39-39 16-39-16l-38-39q-17-16-38-38v391q0 23-16 39t-39 16-39-16-16-39V768l-36 37-40 40q-16 16-39 16t-39-16-16-39zm441-348h241l-241-241v241z"/></svg>