<svg xmlns="http://www.w3.org/2000/svg" viewBox="0 0 1269 2048"><path d="M0 1463V-1q0-30 21-51t51-21h777q18 0 32 7t20 13l146.5 146.5L1146 192l59.5 59.5 30.5 31 10 11.5 3 2q8 8 14.5 20.5t6.5 29.5v1117q0 31-21.5 52t-50.5 21H72q-30 0-51-21t-21-52zm146-73h979V418H849q-30 0-51-21t-21-51V72H146v1318zm193-416.5q0-29.5 22-52.5 22-22 51-22t50 22l51 52 49 49V510q0-30 22-51.5t51-21.5q30 0 51 21.5t21 51.5v512q26-27 47-48l34.5-34.5L808 921q21-22 50-22t52 22q21 23 20.5 52.5T910 1024q-2 1-12.5 11.5L871 1062l-36 36-41 40-108 109q-21 22-51 22t-51-22q-62-62-111-110-21-21-41.5-40.5T396 1061t-25-26-10-11q-22-21-22-50.5z"/></svg>