<svg xmlns="http://www.w3.org/2000/svg" viewBox="0 0 2048 2048"><path d="M0 805q0-142 36.5-273T140 287.5t160-207 207-160 244.5-103T1024-219t272.5 36.5 244.5 103 207 160 160 207T2011.5 532t36.5 273-36.5 272.5-103.5 244-160 207-207 160-244.5 103.5-272.5 37-272.5-37T507 1688.5t-207-160-160-207T36.5 1077 0 805zm482 594q0 9 6 14t14 5h801q8 0 13.5-5t5.5-14V675h-277q-19 0-32-12.5t-13-30.5V354H502q-8 0-14 6t-6 14v1025zM698 278h347q18 0 31 2.5t25.5 9.5 25 18.5T1155 336l61 62V137H719q-9 0-14.5 6t-6.5 15v120zm391 309h208l-208-209v209zm189-128l83 84q21 21 29.5 40.5t8.5 48.5v570h120q9 0 14-5.5t5-14.5V459h-260zm27-89h209l-209-208v208z"/></svg>