<svg xmlns="http://www.w3.org/2000/svg" viewBox="0 0 2048 2048"><path d="M0 805q0-142 36.5-273T140 287.5t160-207 207-160 244.5-103T1024-219t272.5 36.5 244.5 103 207 160 160 207T2011.5 532t36.5 273-36.5 272.5-103.5 244-160 207-207 160-244.5 103.5-272.5 37-272.5-37T507 1688.5t-207-160-160-207T36.5 1077 0 805zm409-375q0 23 8.5 44t24.5 37l87 87 288-287-87-87q-34-34-81-34t-81 34L442 349q-16 16-24.5 37t-8.5 44zm161 208l556 556q11 11 25 15l385 108-107-386q-6-16-15-25-133-131-224-222t-150-150.5-92.5-93-51-50.5-25-24.5L857 351l-79 79 600 600 19-19 41 149q1 2 5 7l-57 57q-2-3-8-6l-147-41 100-100-600-600z"/></svg>