<svg xmlns="http://www.w3.org/2000/svg" viewBox="0 0 1706 2048"><path d="M0 496q0-67 25.5-129T99 255q48-48 110-74t130-26q69 0 129.5 26T579 255l810 811q32 32 47 71t15 79.5-15 80-47 71.5q-31 31-70 46t-79.5 15-79.5-15-70-46L579 855q-13-11-19-26.5t-6-31.5 6.5-31.5T579 737q11-14 27.5-20t32.5-6 32 6 27 20l511 509q13 15 30 15t33-15q13-13 13-30.5t-13-28.5L463 376q-26-24-58-36t-65.5-12-65.5 12-56 36q-23 25-36 56t-13 64 13 64 36 56l813 811q42 43 97 65t112 22 112-21.5 99-65.5q40-43 62.5-97.5T1536 1216q0-58-22.5-112t-62.5-97L638 194q-24-25-24-58.5T638 75q26-24 60.5-24T759 75l810 813q65 65 101 149.5t36 178.5q0 95-36 179.5T1569 1545q-69 69-154.5 103t-175.5 34q-89 0-175-34t-154-103L99 737q-48-48-73.5-110T0 496z"/></svg>