<svg xmlns="http://www.w3.org/2000/svg" viewBox="0 0 1644 2048"><path d="M0 1385V710q0-32 21.5-54.5T73 633h136V125q0-31 21-52.5T281 51h730q19 0 31.5 6t22.5 15l352 352q21 21 21 51v158h133q32 0 53 22.5t21 54.5v675q0 30-21 51t-53 21h-133v153q0 30-21.5 51.5T1363 1683H281q-30 0-51-21.5t-21-51.5v-153H73q-30 0-51.5-21T0 1385zm357 146h934v-473H357v473zm0-898h934v-83h-280q-30 0-52-22t-22-53V200H357v433zm109 794v-108h710v108H466zm0-176v-109h710v109H466zm900-411q0 33 21 55.5t52 22.5 52.5-22.5T1513 840q0-30-21.5-52t-52.5-22-52 22-21 52z"/></svg>