<svg xmlns="http://www.w3.org/2000/svg" viewBox="0 0 2048 2048"><path d="M0 805q0-142 36.5-273T140 287.5t160-207 207-160 244.5-103T1024-219t272.5 36.5 244.5 103 207 160 160 207T2011.5 532t36.5 273-36.5 272.5-103.5 244-160 207-207 160-244.5 103.5-272.5 37-272.5-37T507 1688.5t-207-160-160-207T36.5 1077 0 805zm415 388q0 22 15 37t36 15h55V942q0-42 30.5-72t72.5-30h811q42 0 72 29.5t30 72.5v303h56q22 0 36-15t14-37V686q0-22-14-36.5t-36-14.5H466q-22 0-36.5 14.5T415 686v507zm198-646h810v-68h-320q-22 0-37-15t-15-37V109H613v438zm11 867h811V942H624v472zm139-137v-83h533v83H763zm0-132v-83h533v83H763zm391-768h219l-219-218v218zm336 376q0-22 15-36.5t37-14.5 36.5 14.5T1593 753t-15 37-36 15q-22 0-37-15t-15-37z"/></svg>