<svg xmlns="http://www.w3.org/2000/svg" viewBox="0 0 2048 2048"><path d="M0 805q0-142 36.5-273T140 287.5t160-207 207-160 244.5-103T1024-219t272.5 36.5 244.5 103 207 160 160 207T2011.5 532t36.5 273-36.5 272.5-103.5 244-160 207-207 160-244.5 103.5-272.5 37-272.5-37T507 1688.5t-207-160-160-207T36.5 1077 0 805zm461 402q0 9 3 17.5t10 14.5l115 115q16 14 33 14h919q19 0 32-13.5t13-33.5V288q0-19-13-33t-32-14H507q-19 0-32.5 14T461 288v919zm206-535V374q0-19 13.5-33t32.5-14h621q19 0 33 13.5t14 33.5v298q0 19-14 33t-33 14H713q-19 0-32.5-14T667 672zm46 602V953q0-19 10.5-33t23.5-14h552q15 0 25 14t10 33v321q0 19-10 32.5t-25 13.5H747q-14 0-24-13t-10-33zm98-56h115v-207H811v207z"/></svg>