<svg xmlns="http://www.w3.org/2000/svg" viewBox="0 0 1555 2048"><path d="M0 1344V-149q0-30 21-50t54-20h789q22 0 33.5 5.5T919-197l355 351q22 22 22 53v578h186q33 0 53 24t20 54l-1 746q0 31-21 52t-51 21H338q-30 0-53.5-21t-23.5-52v-190H75q-33 0-54-21t-21-54zm150-72h999V283H864q-30 0-50.5-22T793 207V-71H150v1343zm113-165q0-31 22-53t53-22 53.5 22.5T414 1107q0 31-22.5 53.5T338 1183t-53-22.5-22-53.5zm147 426h997V937h-111v407q0 33-23.5 54t-53.5 21H410v114zm59-426q0-31 22-53t53-22q32 0 53.5 22.5T619 1107q0 31-21.5 53.5T544 1183q-31 0-53-22.5t-22-53.5zm206 0q0-31 22-53t53-22q32 0 53.5 22.5T825 1107q0 31-21.5 53.5T750 1183q-31 0-53-22.5t-22-53.5zm207 0q0-31 22-53t54-22q31 0 52.5 22.5t21.5 52.5q0 31-21.5 53.5T958 1183q-32 0-54-22.5t-22-53.5z"/></svg>