<svg xmlns="http://www.w3.org/2000/svg" viewBox="0 0 2048 2048"><path d="M0 805q0-142 36.5-273T140 287.5t160-207 207-160 244.5-103T1024-219t272.5 36.5 244.5 103 207 160 160 207T2011.5 532t36.5 273-36.5 272.5-103.5 244-160 207-207 160-244.5 103.5-272.5 37-272.5-37T507 1688.5t-207-160-160-207T36.5 1077 0 805zm481-647l1 1025q0 8 5.5 13.5t14.5 5.5h800q9 0 14-5.5t5-13.5V459h-278q-18 0-31-12.5T999 415V137H502q-9 1-15 6.5t-6 14.5zm117 882q0-21 14-35t35-14 35 14 14 35-14.5 35-34.5 14q-21 0-35-14t-14-35zm100 359q0 9 6 14t14 5h800q9 0 14.5-5t5.5-14V861q-1-8-6-14t-14-6h-120v393q0 19-12.5 32t-31.5 13H698v120zm70-359q0-21 14.5-35t34.5-14q21 0 35 14t14 35-14 35-35 14-35-14-14-35zm169 0q0-21 14.5-35t34.5-14q21 0 35 14t14 35-14 35-35 14-35-14-14-35zm151-670h209l-209-208v208zm19 670q0-21 14.5-35t35.5-14 35 14 14 35-14.5 35-34.5 14q-21 0-35.5-14t-14.5-35z"/></svg>