<svg xmlns="http://www.w3.org/2000/svg" viewBox="0 0 1557 2048"><path d="M0 1349V-147q0-30 21-51t51-21h797q16 0 25.5 5.5T917-197l353 352q10 9 17 24t7 31v577h187q33 0 55 21t22 54v748q0 30-23 51t-54 21H334q-13 0-26-5.5t-24-16-18-23.5-7-27v-187H72q-30 0-51-22t-21-52zm146-77h999V286H869q-33 0-55-22.5T792 210V-69H146v1341zm198-494q0-30 23-51t56-21h148V549q0-30 21.5-52.5T646 474t53 22.5 21 52.5v157h155q30 0 51 21.5t21 50.5q0 32-21 54.5T875 855H720v152q0 31-21 52.5t-53 21.5-53.5-21.5T571 1007V855H423q-33 0-56-22.5T344 778zm69 756h994V937h-113v412q0 31-23 52.5t-54 21.5H413v111z"/></svg>