<svg xmlns="http://www.w3.org/2000/svg" viewBox="0 0 2048 2048"><path d="M0 805q0-142 36.5-273T140 287.5t160-207 207-160 244.5-103T1024-219t272.5 36.5 244.5 103 207 160 160 207T2011.5 532t36.5 273-36.5 272.5-103.5 244-160 207-207 160-244.5 103.5-272.5 37-272.5-37T507 1688.5t-207-160-160-207T36.5 1077 0 805zm481-647l1 1025q0 19 20 19h800q9 0 14-5.5t5-13.5V459h-278q-18 0-31-12.5T999 415V138H502q-9 0-15 5.5t-6 14.5zm165 647q0-19 14-34.5t35-15.5h158V598q0-21 14-35t35-14q19 0 34 14t15 35v157h158q21 0 35 15t14 35q0 19-14.5 34t-34.5 15H951v157q0 19-15 34.5t-34 15.5q-21 0-35-14.5t-14-35.5V854H695q-21 0-35-14.5T646 805zm52 594q0 9 6 14.5t14 5.5h800q9 0 14-5.5t5-14.5V862q0-9-5-15t-14-6h-120v394q0 18-12.5 31t-31.5 13H698v120zm390-1028h209l-209-209v209z"/></svg>