<svg xmlns="http://www.w3.org/2000/svg" viewBox="0 0 1620 2048"><path d="M0 1331q0-45 17-84.5t46.5-69.5 68.5-47 85-17q45 0 85 17t69 47 46 70 17 84q0 46-17 85.5t-46 68.5-69 46.5-85 17.5q-46 0-85-17.5T63.5 1485 17 1416.5 0 1331zm14-562V485q144 2 277 40t249 107 212 165 164.5 212.5 107 249.5 40.5 277H778q-2-154-60.5-292T551 997Q442 888 304.5 829.5T14 769zm1-558V-73q221 2 424.5 60.5T821 151t325 252 251.5 325 162.5 382.5 61 425.5h-285q-2-182-50-350t-135-314-207.5-267.5T677 397 363 262.5 15 211z"/></svg>