<svg xmlns="http://www.w3.org/2000/svg" viewBox="0 0 2048 2048"><path d="M0 805q0-142 36.5-273T140 287.5t160-207 207-160 244.5-103T1024-219t272.5 36.5 244.5 103 207 160 160 207T2011.5 532t36.5 273-36.5 272.5-103.5 244-160 207-207 160-244.5 103.5-272.5 37-272.5-37T507 1688.5t-207-160-160-207T36.5 1077 0 805zm515 373q0 33 13 62.5t34.5 51 50.5 34 62 12.5 63-12.5 51.5-34 34.5-51 13-62.5-13-62.5-34.5-51.5-51-34.5T675 1017q-33 0-62 12.5t-50.5 34.5-34.5 51.5-13 62.5zm11-416q113 2 214.5 45.5T922 931t123 182 45 216h212q-1-106-30-204.5T1192.5 940 1071 783 914.5 661t-184-79.5T526 552v210zm1-410q134 1 258 37t231 100 196.5 152.5 153 197T1465 1071t37 258h210q-1-163-44.5-314T1547 732.5 1361.5 493 1122 307.5t-282-121T527 142v210z"/></svg>