<svg xmlns="http://www.w3.org/2000/svg" viewBox="0 0 2048 2048"><path d="M0 805q0-142 36.5-272.5t103.5-244T300 81 507-79.5t244.5-103T1024-219t272.5 36.5 244.5 103T1748 81t160 207.5T2011.5 533t36.5 272q0 142-36.5 272.5t-103.5 244-160 207-207 160-244.5 103.5-272.5 37-272.5-37T507 1688.5t-207-160-160-207T36.5 1077 0 805zm329 486h1390v-104h-70v-73h-84V551h84V419L1024 63 399 419v132h83v563h-83v73h-70v104zm269-177V625h207v489H598zm96-695l328-182 332 182H694zm226 695V625h207v489H920zm322 0V625h207v489h-207z"/></svg>