<svg xmlns="http://www.w3.org/2000/svg" viewBox="0 0 2048 2048"><path d="M0 805q0-142 36.5-272.5t103.5-244T300 81 507-79.5t244.5-103T1024-219t272.5 36.5 244.5 103T1748 81t160 207.5T2011.5 533t36.5 272q0 142-36.5 272.5t-103.5 244-160 207-207 160-244.5 103.5-272.5 37-272.5-37T507 1688.5t-207-160-160-207T36.5 1077 0 805zm387 301q0 37 26.5 63t63.5 26h1102q18 0 34.5-6.5t28.5-18.5 18.5-28.5 6.5-35.5V744H387v362zm0-512h1280v-59q0-37-25.5-62.5T1579 447H477q-18 0-35 7t-29 19-19 28-7 34v59zm197 429v-49h533v49H584z"/></svg>