<svg xmlns="http://www.w3.org/2000/svg" viewBox="0 0 1268 2048"><path d="M0 1463V0q0-31 21-52t52-21h776q17 0 31 7t21 13l347 348q9 9 15 22t6 29v1117q0 31-21.5 52t-50.5 21H73q-31 0-52-21t-21-52zm146-73h976V419H849q-30 0-51-21t-21-52V73H146v1317zm110-180v-109h757v109H256zm0-251V849h757v110H256zm18-450q0-15 10.5-25.5T311 473q15 0 25 11t10 25q0 10 7 17 17 17 49 17 26 0 43-11t17-23q1-6-2.5-10.5T454 491q-17-18-51-18-30 0-55-10t-44-29q-29-29-29-67 0-37 27-64.5t68-36.5v-40q0-14 10.5-23t24.5-11q16 0 26 10.5t9 23.5v41q31 7 51 23 41 32 42 79 0 15-10.5 24.5T498 403q-16 0-25.5-9.5T463 368q1-8-4-13.5t-9-8.5q-9-6-21-9.5t-26-3.5q-25 0-40.5 11T347 368q-1 6 2 10.5t5 6.5q18 18 49 18 62 0 100 38 29 31 28 69 0 37-26 63.5T438 610v39q0 16-10.5 25t-26.5 9q-14 0-24-9.5T367 649l1-40q-38-8-65-34-29-31-29-66zm411 198V599h328v108H685z"/></svg>