<svg xmlns="http://www.w3.org/2000/svg" viewBox="0 0 2048 2048"><path d="M0 805q0-142 36.5-272.5t103.5-244T300 81 507-79.5t244.5-103T1024-219t272.5 36.5 244.5 103T1748 81t160 207.5T2011.5 533t36.5 272q0 142-36.5 272.5t-103.5 244-160 207-207 160-244.5 103.5-272.5 37-272.5-37T507 1688.5t-207-160-160-207T36.5 1077 0 805zm539 558q0 23 16 39.5t40 16.5h858q23 0 39.5-16.5t16.5-39.5V562h-322q-21 0-35.5-14.5T1137 511V191H595q-24 0-40 16.5T539 247v1116zm165-760q0-14 9.5-23t23.5-9 23.5 10 9.5 24q0 8 8 16 7 8 19.5 12t26.5 4q24 0 39.5-10.5T879 605q0-6-3-10t-5-8q-16-16-46-16-57 0-94-36-26-26-26-63 0-34 24.5-60t63.5-35v-36q0-14 10-22.5t23-11.5q14 0 23.5 10.5T859 341l-1 37q27 5 49 22 18 14 28 33.5t10 39.5q0 14-9.5 23t-23.5 9-23-9.5-9-22.5q0-8-4.5-13t-8.5-7q-8-6-18.5-9.5T825 439q-24 0-39.5 11T770 472q0 6 3 10t5 6q15 17 47 17 56 0 93 37 27 27 27 63-1 34-25.5 59.5T857 699v37q-1 14-10.5 23.5T824 769q-14-1-23.5-10t-9.5-23v-38q-17-5-32.5-12T730 666q-26-26-26-63zm31 568v-83h578v83H735zm0-192v-83h578v83H735zm327-193v-82h251v82h-251zm177-327h241l-241-241v241z"/></svg>