<svg xmlns="http://www.w3.org/2000/svg" viewBox="0 0 1758 2048"><path d="M0 1234V386q0-26 25-26h1709q9 0 17 7t8 19v848q0 13-8 20t-17 7H25q-25 0-25-27zm584 303.5q0-25.5 18-43.5 18-17 43-17t44 17q0 1 16.5 17t38 37 42 41 29.5 29v-204q0-26 17.5-44t42.5-18 43.5 17.5T937 1414v204l61-60q23-23 42-42.5t22-21.5q19-17 43.5-17t44.5 17q17 18 17 43t-17 42l-231 231q-17 18-43 18.5t-44-18.5l-230-229q-18-18-18-43.5zM584 72q0-25 17-42l231-231q17-18 43-18t44 18l230 230q18 18 18 43t-18 43q-18 17-43 17.5t-44-17.5q0-1-16.5-17t-38-37-42-41T936-9v204q0 26-17.5 44T875 257q-25 0-43-17.5T814 195V-9l-61 60-64 64q-19 17-43.5 17.5T601 115q-17-18-17-43zm123 825q-1 26 9.5 48.5T744 985t39.5 29 45.5 17v51q0 21 13.5 34.5T877 1130q18 0 31-13t13-32v-54q55-13 90-48.5t35-84.5q0-48-38-88-24-25-57.5-38T878 759q-11 0-25-2.5t-25.5-7.5-19.5-14-8-22q0-17 22.5-31.5T878 667q10 0 23 3t25 8 20 14 8 21q0 18 13.5 32t31.5 14q21 0 34.5-13t13.5-33q0-27-11-49t-28-38.5-39.5-28T925 581v-52q0-19-13.5-33T878 482q-19 0-32.5 13.5T832 528v51q-55 13-90 49t-35 83q0 53 39 90 23 25 57.5 37.5T878 851q10 0 23 3t24.5 9 19.5 15 8 20q0 16-21.5 31T877 944q-11 0-25-2.5t-25.5-7.5-19.5-14-8-22q0-19-13-33t-33-14q-19 0-32.5 13.5T707 897z"/></svg>