<svg xmlns="http://www.w3.org/2000/svg" viewBox="0 0 2050 2048"><path d="M1 800q1-142 38.5-272.5t104.5-244T305 77 513-82.5t245-102 273-34.5q142 0 272 37t244 104.5 207 161 158.5 208 101.5 245 35 272.5-37.5 272-104 244-161 207-208 159-245.5 102.5-272 35.5q-142-1-272.5-38.5t-244-105-206.5-161-159-208T36.5 1072 1 800zm300 365q0 22 20 21h1410q9 0 15.5-6t6.5-15V464q0-10-6-16t-16-6H321q-21 0-20 22v701zm482 249.5q0 20.5 15 35.5l189 190q15 15 36.5 15t35.5-15l191-191q14-14 14-34.5t-14-36.5q-16-15-36.5-15t-36.5 15l-103 103v-169q0-21-15.5-35.5T1024 1262q-22 0-36.5 14.5T973 1312v169q-8-7-25-24l-34-34-30-31-14-14q-16-15-36.5-15t-35.5 15q-15 16-15 36.5zm0-1211q0 20.5 14 36.5 16 15 36.5 15t36.5-15q1-2 17-17.5t35-35.5l51-50v169q0 21 14.5 36t36.5 15q19 0 34-15t15-36V137q8 7 25 24l34.5 34.5L1164 226l13 14q16 15 36 15t36-15q15-16 15-36.5t-15-35.5L1059-22q-15-15-36.5-15T987-22l-93 94-97 97q-14 14-14 34.5zM885 886q0-16 10.5-27t26.5-11 27.5 11 11.5 28q0 10 6.5 17.5T983 916t20.5 6.5 20.5 2.5q29 0 46.5-13t17.5-25q0-10-7-17t-16-12-20.5-7.5-19.5-2.5q-33 0-61.5-11T918 807q-33-31-33-76 0-38 29.5-68t72.5-40v-42q0-16 11-27t27-11q17 0 28 11.5t11 27.5v42q18 6 36.5 15t32.5 22.5 23 32 9 40.5q0 16-11 26.5t-28 10.5q-15 0-26.5-10.5T1088 734q0-10-7-17.5t-16-11.5-20.5-6.5-19.5-2.5q-27 0-45.5 11.5T961 734q0 10 6.5 17.5t16 12 21 6 20.5 1.5q32 0 60 11.5t48 31.5q31 33 30 73 0 40-28.5 69.5T1062 997v44q0 16-11 26.5t-27 10.5-28-11-12-28v-42q-19-5-37-14.5t-32-24-22-33-8-39.5z"/></svg>