<svg xmlns="http://www.w3.org/2000/svg" viewBox="0 0 1606 2048"><path d="M0 1766V-8q0-26 17.5-45.5T63-73q26 0 45.5 19.5T128-8v89h1373q26 0 45.5 20t19.5 46-19.5 43.5T1501 208h-120v114h163q26 0 44.5 19.5T1607 389v762q0 27-18.5 46.5T1544 1217H262q-26 0-43.5-19.5T201 1151V389q0-27 17-47t44-20h163V208H128v1558q0 27-19.5 45T63 1829q-27 0-45-18t-18-45zm331-872q19 19 45.5 28t56.5 9q21 0 42.5-6t38.5-18.5 28-31 11-43.5q0-32-18-53t-52-32q-38-10-54-21.5T413 701q0-16 13.5-23.5T458 670q13 0 26.5 5t22.5 14l46-51q-34-31-95-31-22 0-42.5 6t-37 19.5-26.5 32-10 42.5q0 35 20 53t51 31q9 3 21.5 6t24 8 19.5 12.5 8 19.5q0 16-14.5 24.5T440 870q-16 0-33-7.5T379 839zm159-572h827V208H490v114zm93 447q0 75 47.5 118.5T750 931q37 0 67.5-11t53-32 35-51 12.5-68q0-75-47.5-118.5T750 607q-37 0-67 11.5T630.5 651t-35 50.5T583 769zm71 1q0-21 7.5-39t20.5-31.5 30-21.5 38-8 38.5 8 30.5 21.5 20.5 32T847 770q0 21-7.5 39T819 841t-31 21.5-38 7.5q-40 0-68-29t-28-71zm313 155h192v-63h-125V614h-67v311zm228 0h110q32 0 63-11t55-30.5 39-48 15-64.5q0-82-49.5-119.5T1294 614h-99v311zm67-63V678h37q19 0 38.5 5t34 16 24 27.5 9.5 40.5q0 43-29.5 68.5T1297 862h-35z"/></svg>