<svg xmlns="http://www.w3.org/2000/svg" viewBox="0 0 2048 2048"><path d="M0 806q0-142 36.5-273T140 288.5 300 81 507-79.5t244-103 272-36.5 272.5 36.5 244.5 103T1747.5 81 1908 288.5 2011.5 533t36.5 273q0 141-36.5 271.5t-103.5 244-160.5 207-207.5 160-244.5 103.5-272.5 37q-265 0-514-140V437h237v92H615q-21 0-34.5 16T567 584v611q0 22 13.5 37.5T615 1248h1030q21 0 35.5-15.5t14.5-37.5V584q0-23-15-39t-35-16h-132v-92h97q21 0 36.5-13.5T1662 390q0-23-15.5-38.5T1610 336H509v-71q0-21-16-36.5T456 213q-23 0-37 16t-14 36v1354q-93-70-167.5-159T110 1267t-81.5-220.5T0 806zm671 184l39-47q8 13 21.5 19.5T758 969q14 0 25-7.5t11-19.5q0-8-6-14.5T772.5 917t-19.5-7-17-5q-25-10-41-23.5T679 839q0-40 29.5-60.5T773 758q50 0 76 25l-36 40q-7-7-19-10.5t-21-3.5q-15 0-26 5t-11 19q0 19 57 38 26 9 41 25.5t15 41.5q0 21-8.5 36t-22 25-31 15-34.5 5q-51 0-82-29zm128-461v-92h664v92H799zm73 359q0-59 38.5-94.5T1007 758t96.5 35.5T1142 888q0 62-38.5 96.5T1007 1019t-96.5-34.5T872 888zm57 1q0 33 23 56.5t55 23.5q33 0 55.5-23.5T1085 889t-22.5-56.5T1007 809q-32 0-55 23.5T929 889zm253 125V763h53v199h100v52h-153zm183 0V763h80q67 0 106.5 30t39.5 97q0 27-12 50t-31.5 40-44 25.5-49.5 8.5h-89zm52-52h30q40-1 63-21t23-55q0-37-26.5-54t-57.5-17h-32v147z"/></svg>