<svg xmlns="http://www.w3.org/2000/svg" viewBox="0 0 2374 2048"><path d="M0 882v-73q0-11 4-24.5T19.5 760 52 741.5t55-7.5h502q-32 49-51 105.5T535 958H107q-13 0-31-.5T41 950t-29-22.5T0 882zm106 288v-58q0-11 4-24.5t15.5-25T158 1044t56-7h321q5 57 22.5 109.5T603 1247H214q-106 0-108-77zm0-593v-56q0-7 4-20t15.5-25.5T158 453t56-10h1138q16 0 24-12t9-26-5-26-20-12h-336q-35 0-53.5-11.5T943 329q-10-17-12-39v-57q0-35 14.5-54t31.5-28q21-10 47-12h512q61 0 117 25.5t106.5 65.5 96 89.5 82.5 100 65.5 95T2051 589h290q16 72 25 145.5t9 150.5q0 117-20 226.5t-57 213.5h-247q-27 42-71 80t-103.5 67-135 46-166.5 17H423q-25-1-46-9-17-7-32-22.5t-15-45.5v-57q1-21 12-38 9-15 27-26.5t54-11.5h240q67 72 158.5 114.5T1022 1482q101 0 190-38t155-104.5 104.5-155T1510 994t-38.5-191T1367 648.5t-155.5-104T1022 506q-105 0-194.5 39.5T672 654H214q-7 0-25.5-.5T152 646t-32.5-22.5T106 577zm737 513q0-19 14.5-33.5T891 1042q21 0 35.5 14.5T941 1093q0 14 8 23t20.5 14.5 26 8 26.5 2.5q37 0 59-15.5t22-32.5q0-14-8.5-23t-20.5-15.5-26-9.5-25-3q-41 0-77.5-13T885 990q-41-41-42-96 0-49 37.5-87.5T975 755v-54q0-19 14-33.5t35-14.5q22 0 35.5 14t13.5 35v55q24 7 47 18.5t41 29 29.5 40T1202 896q0 21-14 35t-36 14q-19 0-33.5-15t-14.5-34q0-14-8.5-22.5t-21-14-26.5-8.5-25-3q-35 0-58 15t-23 33q0 14 8 23t20.5 15.5 26 8.5 26.5 2q41 0 76.5 14t61.5 40q19 19 29.5 43t10.5 51q0 51-36.5 88.5T1070 1232v57q0 19-14.5 33.5T1022 1337q-22 0-36.5-14t-14.5-36v-55q-24-6-47-18.5t-41.5-30T853 1142t-10-52z"/></svg>