<svg xmlns="http://www.w3.org/2000/svg" viewBox="0 0 2022 2048"><path d="M0 805q0-142 36.5-272.5t103.5-244T300 81 507-79.5t244.5-103T1024-219q122 0 236.5 27t216.5 77.5T1667 8t158.5 160 121 191.5T2023 577h-223q-15-23-36.5-57t-50-72-63-76-73.5-69-82.5-50-88.5-19h-392q-21 1-36 9-14 7-24.5 21.5T943 305v45q1 17 9 29 7 11 21 20t41 9h257q10 0 15 9t4 20.5-7 20.5-18 9H393q-26 0-42.5 7.5t-26 17-12 19.5-2.5 15v43q0 24 10.5 36t25 17 28 6 19.5 1h350q51-54 120.5-84.5T1011 514t146 30 119 80.5 80 118.5 29 146-29 146-80 118-119 80-146 30q-82 0-152-32.5T737 1143H553q-26 0-40.5 9t-21.5 21q-8 13-9 28v44q1 23 12.5 34.5T519 1297q15 7 34 7h882q70 0 128.5-13t103.5-35.5 78.5-51.5 54.5-62h191q-51 150-146 276t-221.5 217.5-279 142.5-320.5 51q-142 0-272.5-37T507 1688.5t-207-160-160-207T36.5 1077 0 805zm230-3q0 23 9 35t22 18 27.5 6.5 23.5.5h327q3-48 18-91.5t39-82.5H312q-26 0-42 5.5t-25.5 15-12 19.5-2.5 19v55zm80 222q3 58 83 58h298q-22-37-35.5-76.5T639 921H393q-26 0-42.5 6t-26 15-12 19-2.5 20v43zm565-61q0 42 30 70t70 39l-1 42q0 16 10.5 26.5t26.5 10.5 27-10.5 11-26.5v-42q43-9 72-38t29-69q0-25-12-46.5t-31.5-36.5-43.5-23-49-8q-7 0-18-1.5t-20.5-6-16.5-12-7-17.5q0-13 17-25.5t45-12.5q7 0 17.5 2.5t20.5 6.5 16.5 11 6.5 18q0 16 11 26.5t27 10.5 27-10 11-26q0-41-30-69.5t-70-39.5v-42q0-16-10-27t-26-11q-17 0-27.5 11T977 664v42q-43 9-71.5 38.5T877 814q0 41 30 72 19 19 47 30t59 11q7 0 17.5 1.5t20.5 6 16.5 12 6.5 18.5q0 13-17 24.5t-44 11.5q-9 0-19.5-1.5t-19.5-6-15.5-12T951 963q0-16-11-26t-27-11q-16 0-27 10.5T875 963z"/></svg>