<svg xmlns="http://www.w3.org/2000/svg" viewBox="0 0 1268 2048"><path d="M0 1463V0q0-31 20.5-52T73-73h775q18 0 32 7t21 13q64 64 113 113.5t85.5 86.5 61.5 62l41 41q38 39 45 45 9 9 15.5 22t6.5 29v1117q0 31-21.5 52t-50.5 21H73q-32 0-52.5-21T0 1463zm145-73h977V419H848q-30 0-51-21.5T776 346V73H145v1317zm104-495q2-15 9.5-28.5T280 842q26-19 58-14.5t52 30.5l101 136 324-436q19-26 51.5-31.5T926 542q26 19 30.5 50.5T942 650l-388 524q-13 15-28.5 23.5T491 1206t-35.5-8.5T427 1174L263 953q-9-13-12.5-28t-1.5-30z"/></svg>