<svg xmlns="http://www.w3.org/2000/svg" viewBox="0 0 2048 2048"><path d="M0 805q0-142 36.5-273T140 287.5t160-207 207-160 244.5-103T1024-219t272.5 36.5 244.5 103 207 160 160 207T2011.5 532t36.5 273-36.5 272.5-103.5 244-160 207-207 160-244.5 103.5-272.5 37-272.5-37T507 1688.5t-207-160-160-207T36.5 1077 0 805zm539 558q0 23 17.5 39.5T597 1419h856q23 0 39.5-16.5t16.5-39.5V561h-322q-22 0-36.5-15.5T1136 509V190H597q-23 0-40.5 16T539 245v1118zm190.5-433.5Q734 904 753 890q21-16 45-12t40 24l76 104 247-334q15-19 40.5-23t45.5 10q21 16 23.5 40t-11.5 44l-296 400q-8 10-20.5 17t-28.5 7q-14 0-26.5-7t-20.5-17L741 974q-16-19-11.5-44.5zM1239 458h242l-242-240v240z"/></svg>