<svg xmlns="http://www.w3.org/2000/svg" viewBox="0 0 2217 2048"><path d="M0 1505V425q0-13 8-21.5t21-8.5l2160-2q10 0 19 10t9 22v1080q0 13-9 22t-19 9H29q-10 0-19.5-9T0 1505zm889-419q0 32 14 60t38 53q19 22 46.5 35t57.5 20v69q0 22 17 38.5t40 16.5q24 0 41.5-14t17.5-41v-69q70-11 114-57t44-107q0-32-12-60t-34-53q-32-32-75.5-47.5T1104 914q-23 0-46-7.5t-36-24.5q-3-3-8-11t-5-18q2-19 27.5-37t67.5-18q30 0 50.5 8t34.5 20l11 11 5 18q0 26 16.5 42.5T1259 914q25 0 42.5-16.5T1319 855q0-65-46-111-19-19-47.5-34.5T1167 687v-64q0-23-16.5-40t-44.5-17q-24 0-41 16.5t-17 36.5v68q-34 7-62.5 22.5T936 747t-33 49-12 57q0 31 13.5 59.5T941 965q31 33 72.5 49.5t90.5 16.5q54 0 85 31 6 3 8.5 9.5t2.5 18.5q0 19-27 37.5t-71 18.5q-23 0-43.5-5.5T1023 1122q-14-14-14-32 0-25-17.5-42t-42.5-17q-24 0-42 16t-18 39z"/></svg>