<svg xmlns="http://www.w3.org/2000/svg" viewBox="0 0 2050 2048"><path d="M1 800q1-142 37.5-272.5t104-244T304 77 512-82.5t245-102 273-34.5q142 0 272 37t243.5 104.5 207 161 159 208 101.5 245 36 272.5q-1 142-37.5 272t-104 244-161 207-208 159-245.5 102.5-272 35.5q-142-1-272.5-38.5t-244-105-206.5-161-159-208T36.5 1072 1 800zm297 360q0 9 6 14t14 5h1418q9 0 14-5.5t5-13.5V450q0-8-5.5-13.5T1736 431H318q-8 1-14 6t-6 14v709zm587-275q0-16 10.5-27t26.5-11 27.5 11.5T961 886q0 6 3.5 12t6.5 9q9 9 23 12.5t30 5.5q29 0 46.5-13t17.5-26q0-10-9-20-19-19-54-19-32 0-60.5-11T917 805q-33-33-31-74 0-40 28.5-70t72.5-39v-44q0-16 11-26.5t27-10.5 27.5 10.5T1064 578v44q21 6 39 15t32 22q31 33 31 74 0 16-11.5 26.5T1127 770t-27-10.5-11-26.5q0-10-9-20-9-9-23.5-14t-30.5-5q-27 0-45.5 12.5T962 731q0 7 3 11.5t6 8.5q9 9 23.5 14t30.5 5q32 0 60.5 11.5T1134 813q31 31 31 74 0 40-29.5 69.5T1062 997v43q0 16-11 27t-27 11-27.5-11.5T985 1039v-44q-42-9-70-36-31-31-30-74z"/></svg>