<svg xmlns="http://www.w3.org/2000/svg" viewBox="0 0 1587 2048"><path d="M0 891q0-104 25-200.5T97 509t112-156.5 145.5-125T528 140t194-43V-78h-69q-30 0-51-21t-21-50 21-49.5 51-20.5h283q29 0 47.5 21t18.5 49q0 29-18.5 50T936-78h-73V97q115 10 219 52.5T1275 259l91-92q16-16 36-24t40.5-8 39.5 8 35 24q32 32 32 75t-32 75l-93 91q75 103 119 224t44 259q0 110-28.5 211t-80 189-124 160-161 124-190 80-211.5 28q-165 0-309-62t-251-169.5T62.5 1200 0 891zm161 0q0 130 49 245t135 201 201 135.5 246 49.5q88 0 169-22.5t152-64 129.5-98.5 99.5-127.5 64-151 23-167.5q0-131-50-247t-137-202.5T1039 305t-247-50-246 50-201 136.5T210 644t-49 247zm393 118q0-26 18-44t45-18q26 0 44 19t18 43q0 10 5 18t11 13q14 15 37 24t50 9q48 0 76.5-20t29.5-42q0-10-6.5-18t-9.5-14q-14-14-38-21.5t-50-7.5q-54-2-99-20t-77-50q-54-50-54-122 0-32 12.5-60.5t35.5-52 53.5-40T722 582v-71q0-26 19-44.5t45-18.5q25 0 43.5 19t18.5 46v70q53 10 94 41 33 26 52 62t19 75q0 25-18.5 43.5T950 823q-24 0-42.5-18.5T889 761q0-16-8.5-24.5T863 723q-14-13-35-18.5t-44-6.5q-47 0-75.5 20T680 758q0 11 5 19t11 15q14 15 38 23t50 8q53 0 98.5 18t76.5 52q51 49 51 118-1 66-46 115t-119 64v71q0 26-18.5 43.5T781 1322q-26 0-44.5-17.5T719 1261v-71q-65-16-112-61-26-25-39.5-56t-13.5-64z"/></svg>