<svg xmlns="http://www.w3.org/2000/svg" viewBox="0 0 2048 2048"><path d="M0 805q0-142 36.5-273T140 287.5t160-207 207-160 244.5-103T1024-219t272.5 36.5 244.5 103 207 160 160 207T2011.5 532t36.5 273-36.5 272.5-103.5 244-160 207-207 160-244.5 103.5-272.5 37-272.5-37T507 1688.5t-207-160-160-207T36.5 1077 0 805zm469 58q0 115 44 217t120 177.5T810.5 1377t216.5 44 217-44 177.5-119.5T1541 1080t44-217q0-96-30-182t-85-156l65-66q23-22 23-52t-23-53q-22-22-52-21.5t-53 22.5l-65 64q-62-47-134.5-76T1077 307V182h49q21 0 35-14.5t14-34.5q0-21-14.5-35.5T1126 83H928q-21 0-35 14.5T879 133t14 35 35 14h49v125q-107 9-199.5 56T616 485 508 656.5 469 863zm113 0q0-93 34.5-174T712 547.5 853.5 452t173.5-35 174 35 141.5 95.5T1438 689t35 174-35 174-95.5 141.5T1201 1274t-174 35-173.5-35-141.5-95.5-95.5-142T582 863zm276 84q0 49 37 84 30 32 80 42v50q-1 18 11.5 31t31.5 13q18 0 31-12.5t13-31.5v-49q51-11 84-45.5t33-79.5q0-47-35-85-23-23-55.5-35.5T1019 816q-39 0-61-22-3-5-7-10t-4-11q0-16 20-30.5t54-14.5q33 0 56 17 5 3 10.5 10.5t5.5 17.5q0 18 12.5 30.5T1136 816q19 0 32-12.5t13-30.5q0-27-13.5-52.5T1129 675q-26-19-64-28v-49q0-19-12.5-32t-30.5-13-31.5 12.5T977 597v49q-51 11-83.5 45T861 771q-2 47 35 85 23 23 55 35.5t68 12.5q40 0 62 22 3 3 6.5 9t3.5 12q0 16-20 30.5t-53 14.5q-39 0-61-23-3-3-7-9t-4-13q0-18-12.5-30.5T903 904t-31 12.5-14 30.5z"/></svg>