<svg xmlns="http://www.w3.org/2000/svg" viewBox="0 0 2048 2048"><path d="M0 805q0-142 36.5-273T140 287.5t160.5-207T508-79.5t244-103 272-36.5 272.5 36.5 244.5 103 207 160 160 207T2011.5 532t36.5 273-36.5 272.5-103.5 244-160 207-207 160-244.5 103.5-272.5 37q-141 0-271.5-37T508 1688.5t-207.5-160-160.5-207T36.5 1077 0 805zm399 408q0 26 16.5 41.5T457 1270h442l104 154q3 5 8.5 8t12.5 3 12-3 9-8l108-154h441q23 0 39.5-15.5t16.5-41.5V397q0-24-16.5-41.5T1594 338H457q-25 0-41.5 17.5T399 397v816zm548-629q-2-32 20.5-57.5T1023 501q17 0 32 6.5t25.5 18.5 16.5 27 5 31l-25 317q-2 23-18.5 37.5T1019 951q-19-2-32-16.5T971 901zm24 472v-9q0-23 15-38t38-15q22 0 37.5 15t15.5 38v9q0 23-15.5 38t-37.5 15q-23 0-38-15t-15-38z"/></svg>