<svg xmlns="http://www.w3.org/2000/svg" viewBox="0 0 2072 2048"><path d="M0 1207V677h843q-30 19-47 43t-23.5 51-4.5 53.5 14 50.5l64 136H289v74h592l118 251H129q-26 0-49.5-10.5t-41-28-28-41T0 1207zm0-751v-87q0-27 10.5-50.5t28-40.5 41-27.5T129 240h1034q-19 49-51.5 109T1042 456H0zm918 355q49-42 99-94 43-45 93.5-105t97.5-131q47-72 80-145t53.5-143 30-134 9.5-118q0-9 12-11t26 0q17 3 39 11v902q-34 9-55.5 34t-21.5 58q0 21 8.5 38.5t24 30.5 36.5 21 45 8 45-8 36.5-21 24.5-31 9-38q0-33-21.5-57.5T1535 843V-59q21-7 38-11 14-2 25.5-.5T1610-59q0 55 9.5 118.5T1649 193t52.5 143 79.5 145q47 71 97.5 131t94.5 105q50 53 99 94l-247 526h-659zm76 675h1001v196H994v-196z"/></svg>