<svg xmlns="http://www.w3.org/2000/svg" viewBox="0 0 2048 2048"><path d="M0 805q0-142 36.5-272.5t103.5-244T300 81 507-79.5t244.5-103T1024-219t272.5 36.5 244.5 103T1748 81t160 207.5T2011.5 533t36.5 272q0 142-36.5 272.5t-103.5 244-160 207-207 160-244.5 103.5-272.5 37-272.5-37T507 1688.5t-207-160-160-207T36.5 1077 0 805zm286 301q0 37 26 62.5t63 25.5h593l-81-171H483v-49h380l-44-94q-16-32-6.5-71t49.5-65H286v362zm0-512h711q24-31 46.5-72.5T1080 447H375q-37 0-63 25.5T286 535v59zm626 243l169 358h450l168-358q-33-29-67-64-30-30-64.5-72t-65.5-90q-32-49-54.5-98.5t-36-97.5-20-91.5-6.5-81.5q0-7-8.5-8t-17.5 1q-13 2-26 7v616q23 7 37.5 23.5T1385 921q0 27-23 46.5t-56 19.5-56-19-23-47q0-23 15-39.5t38-23.5V242q-15-5-26-7-10-2-18.5-1t-8.5 8q0 75-26 172.5T1111 611q-32 48-66.5 90T981 773q-34 35-69 64zm53 594h682v-134H965v134z"/></svg>