<svg xmlns="http://www.w3.org/2000/svg" viewBox="0 0 1956 2048"><path d="M1 1363V835q0-53 18.5-93t45-67.5 57.5-43 55-17.5l159-415q11-30 29.5-57T411 95t63-32 83-12h841q48 0 84 12t62 32 44.5 47 29.5 57l160 415q24 2 55 17.5t58.5 43 46.5 68 19 92.5v528h-157v168q0 51-21.5 86.5T1724 1670t-71 16.5-70.5-18-55-51.5-22.5-86v-168H450v168q0 51-21.5 85.5t-54 52-71 18-71-16.5-54-51.5T157 1531v-168H1zm145-457q0 34 12 65t34.5 53.5T244 1060t63 13q33 0 63-13t52.5-35.5 35-53T470 906q0-34-12.5-64.5t-35-52.5-52-35-63.5-13-63 12.5-51.5 34.5-34.5 53-12 65zm197-298h1271l-121-326q-13-35-32.5-57.5T1401 201H555q-40 1-60 23.5T463 282zm1140 298q1 34 14.5 65t35.5 53.5 52 35.5 64 13q33 0 63-13t51.5-35.5 34-53T1810 906q0-34-12.5-65t-34-53-51.5-34.5-63-12.5q-34 0-64 12.5t-52 34.5-35 53-15 65z"/></svg>