<svg xmlns="http://www.w3.org/2000/svg" viewBox="0 0 2048 2048"><path d="M0 805q0-142 36.5-273T140 287.5t160.5-207T508-79.5t244-103 272-36.5 272.5 36.5 244.5 103 207 160 160 207T2011.5 532t36.5 273q0 141-36.5 271.5t-103.5 244-160 207.5-207 160.5-244.5 103.5-272.5 37q-141 0-271.5-37T508 1688.5 300.5 1528 140 1320.5t-103.5-244T0 805zm421 305h96v104q0 32 13.5 53t33.5 32 43.5 11 43.5-11 33.5-32 13.5-53v-104h652v104q0 32 13.5 53t33.5 32 43.5 11 44-11 33.5-32 13-53v-104h98V784q0-33-11.5-58t-29-42.5-36-26.5-33.5-11l-100-256q-14-37-45-64t-89-28H763q-58 1-89.5 28T629 390L529 646q-15 2-33.5 11T460 683.5 432 726t-11 58v326zm89-283q0-43 29-73.5t71-30.5q21 0 39 8t32 22.5 22 33.5 8 40q0 22-8 41t-22 32.5-32 21.5-39 8q-42 0-71-29.5T510 827zm122-184l74-202q7-22 19.5-35t36.5-14h524q24 1 36.5 14t19.5 35l74 202H632zm705 184q0-43 30-73.5t72-30.5q21 0 39 8t31 22.5 21 33.5 8 40q0 22-8 41t-21 32.5-31.5 21.5-38.5 8q-42 0-72-29.5t-30-73.5z"/></svg>