<svg xmlns="http://www.w3.org/2000/svg" viewBox="0 0 2048 2048"><path d="M0 805q0-142 36.5-273T140 287.5t160.5-207T508-79.5t244-103 272-36.5 272.5 36.5 244.5 103 207 160 160 207T2011.5 532t36.5 273-36.5 272.5-103.5 244-160 207-207 160-244.5 103.5-272.5 37q-141 0-271.5-37T508 1688.5t-207.5-160-160.5-207T36.5 1077 0 805zm349-206l320 161q5-8 14-14l366-185q17-9 33-2.5t25 22.5q8 16 2.5 32t-21.5 24L757 803l281 139 689-342-689-345zm242 320q0 64 80 120l-9-239-71-33v152zm57 539q0 30 18.5 46t39.5 15q23-2 37-19.5t14-41.5l-18-225q-2-29-34-34-16-1-26 8.5t-13 25.5zm87-385q66 30 149 45t167.5 14 165.5-17 145-49q62-31 94.5-69t32.5-78V765l-441 221q-2 1-4.5 2t-5.5 1q-6 0-11-3L742 842z"/></svg>