<svg xmlns="http://www.w3.org/2000/svg" viewBox="0 0 3218 2048"><path d="M5 1485q11-34 43-50 1 0 19.5-9.5t47.5-24l66-33 75-38.5 203-103 79-40q14-7 33.5-8.5t45.5 8.5l615 314 337-173q-85-3-165.5-28t-151.5-70-130-108.5-99-144.5q-39-80-55-163.5T957.5 648t32-160.5 71-147 107.5-125 142-95.5q69-34 140-51.5T1593 51q89 0 173.5 24t159.5 70 137 112 103 151q40 80 56 164t9.5 167-34.5 162.5-75 148.5l787-399-244-80q-16-5-28.5-16t-20.5-26-9.5-31.5 3.5-33.5q13-33 44.5-49t65.5-5l437 143q17 6 30.5 17t21.5 27q16 31 5 64-40 122-71 218-14 41-26.5 80.5t-23 71-17 51.5-6.5 21q-6 17-17 29.5t-25.5 20-32 9-34.5-3.5-30-16.5-20.5-26-8.5-32 4-34.5q0-1 4-12.5t10-29 13.5-39.5 13.5-45l39-118-1715 867q-23 11-40 10t-37-10l-617-313-224 114q-42 22-82.5 42.5T198 1552l-52 26-20 11q-32 16-66 5t-50-43-5-66zm1307.5-932.5Q1291 619 1321 682q32 64 105 88 46 16 97 11.5t101-29.5q11-5 29-10t37-5.5 35 5 24 21.5 2.5 33-17 31.5-26.5 26-28 18.5q-13 6-30.5 11t-36 5.5-35-5.5-24.5-24q-13-25-38-33.5t-49 4.5q-25 13-34 38.5t4 50.5q16 32 42 53.5t58.5 33 68.5 13.5 71-8l32 66q11 25 35.5 34t50.5-4 35-38.5-4-49.5l-33-66q31-24 52-54t31.5-63 8.5-66-16-64q-21-40-56-64t-77-32-86.5-1.5T1566 635q-11 6-29 11t-37 6-35.5-5.5T1440 624q-6-10-3.5-24.5T1448 571t24.5-28 36.5-24v-1 1q11-6 28.5-11t36.5-6 35.5 4.5T1634 528q13 25 38 34t49-3q25-13 33.5-38t-2.5-50q-18-37-52.5-62t-80.5-34q-26-5-53-3.5t-54 6.5l-32-65q-13-23-35.5-32t-52.5 1q-24 13-33 38.5t3 50.5l33 66q-61 49-82.5 115.5z"/></svg>