<svg xmlns="http://www.w3.org/2000/svg" viewBox="0 0 2048 2048"><path d="M0 805q0-142 36.5-273T140 287.5t160-207 207-160 244.5-103T1024-219t272.5 36.5 244.5 103 207 160 160 207T2011.5 532t36.5 273-36.5 272.5-103.5 244-160 207-207 160-244.5 103.5-272.5 37q-158 0-302.5-45.5t-266-127-216.5-194T85 1215q5-2 19.5-9.5t35-18 45-23T233 1139q57-30 128-64l359 183q13 6 23 6.5t24-6.5l1004-507-22 68q-9 26-16.5 48.5T1725 893q-8 19 1.5 37.5T1755 954q19 8 39.5-1t26.5-28q0-1 3-12.5t9-30 13.5-42T1862 793q18-56 41-127 7-20-2-37-11-21-31-26l-256-84q-19-7-38 2t-26 31q-6 19 3 38t29 25l144 46-460 233q55-82 63.5-181.5T1291 518q-25-49-61-88t-80-65.5-93.5-40.5T954 310q-41 0-83 9.5T789 350q-70 34-117.5 90.5t-70.5 124-19 142T621 850q23 47 57.5 85t76.5 64.5 89 41.5 97 16l-197 101-360-184q-16-6-27-5.5t-19 5.5l-45 21q-63 33-115 60-22 11-43.5 22t-39 20-30 16-16.5 8q-24-75-36.5-154T0 805zm790.5-201.5Q803 565 839 535l-18-39q-8-14-3-29.5t20-21.5q16-6 30-1t20 18l19 39q19-5 40.5-4t41.5 8 36 19.5 24 30.5q6 15 1.5 30t-19.5 22-30 1.5-22-18.5q-5-10-14.5-13.5t-20.5-3-21.5 3T905 583q-25 13-35.5 31.5T865 645q5 10 14.5 13.5t20.5 3 21-3.5 16-7q24-11 50.5-15t51 1 45 19 33.5 38q16 35 4 74.5t-48 68.5l18 38q8 14 3 29.5t-21 22.5q-15 7-29 1.5t-21-18.5l-18-39q-41 10-82-3.5T864 817q-7-16-2-30t19-21q14-8 29-3.5t23 20.5q5 9 14.5 12.5t20 3T989 795t18-6 16-9.5 16-15.5 9.5-18.5-1.5-18.5q-6-9-15-12.5t-20-3.5-21 3-17 6q-24 11-50.5 15t-50.5-.5-44.5-18T795 679q-17-37-4.5-75.5z"/></svg>