<svg xmlns="http://www.w3.org/2000/svg" viewBox="0 0 2048 2048"><path d="M0 758q0-142 36.5-273T140 240.5 300.5 34 508-126t244-103.5 272-36.5 272.5 36.5T1541-126t207 160 160 206.5T2011.5 485t36.5 273-36.5 272.5T1908 1275t-160 207-207 160-244.5 103.5T1024 1782q-141 0-271.5-36.5T508 1642t-207.5-160T140 1275 36.5 1030 0 758zm462 466q0 33 22.5 55.5T539 1302h971q32 0 54.5-22.5t22.5-55.5V906H462v318zm0-451h1125v-51q0-33-22.5-55t-54.5-22H539q-32 0-54.5 22T462 722v51zm173 378v-42h468v42H635zm135-948q0 19 14.5 34.5T819 253h158v156q0 22 14 35.5t33 12.5q21 1 34.5-12.5T1072 409V253h158q21 0 35-15t14-35q0-19-14.5-33.5T1230 155h-158V-1q0-21-13.5-35T1024-50q-19 0-33 14T977-1v156H819q-21 0-35 14.5T770 203z"/></svg>