<svg xmlns="http://www.w3.org/2000/svg" viewBox="0 0 2518 2048"><path d="M0 1399V846h1232q-17 99-5.5 197.5T1274 1232t94 168 133 136H133q-27 0-51.5-11t-42-29-28.5-43.5T0 1399zm0-782v-86q0-30 11-55t28.5-43.5 41.5-29 52-10.5h1368q-119 96-186 224H0zm299 657h812v-79H299v79zm1079-313q0-118 45.5-221T1546 559.5t181-122 222-44.5 221.5 44.5 181 122T2474 740t45 221q0 119-45 224t-122.5 183-181.5 123-221 45q-118 0-222-45t-181-123-122.5-183-45.5-224zm358 117q-1 33 11.5 61t34 49.5 49 36.5 57.5 22v65q0 26 17 43.5t42 17.5q23 0 40.5-17.5t17.5-40.5v-68q69-15 113-59.5t44-106.5q0-31-12.5-60t-35.5-52q-31-31-73.5-47.5T1950 905q-15 0-32-3t-31.5-9.5-24-18-9.5-28.5q0-22 27-39t70-17q14 0 30.5 3.5t30.5 9.5 24.5 17 10.5 26q0 24 17 41.5t40 17.5q26 0 43-16.5t17-42.5q0-33-13.5-60.5t-35-48-49-35T2009 680v-65q0-24-16-41t-42-17q-25 0-42.5 16.5T1891 613v66q-33 8-61.5 23.5t-49 37T1748 788t-12 57q0 63 48 114 30 30 72.5 46.5t93.5 16.5q13 0 29 2.5t30.5 9.5 25 18.5 10.5 28.5q0 21-27.5 39t-70.5 18q-13 0-28.5-2t-31-8.5-26-18-10.5-28.5q0-26-17-42.5t-42-16.5q-23 0-39.5 16.5T1736 1078z"/></svg>