<svg xmlns="http://www.w3.org/2000/svg" viewBox="0 0 2048 2048"><path d="M0 805q0-142 36.5-273T140 287.5t160.5-207T508-79.5t244-103 272-36.5 272.5 36.5 244.5 103 207 160 160 207T2011.5 532t36.5 273-36.5 272.5-103.5 244-160 207-207 160-244.5 103.5-272.5 37q-141 0-271.5-37T508 1688.5t-207.5-160-160.5-207T36.5 1077 0 805zm286 298q0 38 25.5 64t61.5 26h898q-48-39-86.5-89.5t-62-110-31.5-124 4-130.5H286v364zm0-513h864q22-43 52.5-80t68.5-69H373q-35 0-61 26.5T286 533v57zm195 429v-51h535v51H481zm709-204q0 78 29.5 147t81 120.5 120 81T1567 1193q77 0 145.5-29.5t118.5-81 80-120.5 30-147-30-146-80-119-118.5-80-145.5-29q-78 0-146.5 29t-120 80-81 119-29.5 146zm236 76q0-16 10.5-26t26.5-10 27 11 11 28q0 11 6.5 18t17 11 22 5.5 19.5 1.5q27 0 45-12t18-24q0-11-7-19t-17-12.5-20-6-18-1.5q-33 0-61.5-11t-47.5-31q-32-32-32-76 0-38 29.5-67.5T1528 630v-44q0-16 11.5-26.5T1567 549t27.5 11 11.5 27v43q18 6 36.5 15t32.5 22.5 22.5 32 8.5 39.5q0 16-11.5 27.5T1667 778t-26.5-11.5T1630 739q0-10-7-17.5t-16.5-12-20.5-6-19-1.5q-29 0-47 11.5t-18 25.5q0 11 6 19t16 12.5 21.5 6 21.5 1.5q64 0 108 43 14 15 22 33.5t8 39.5q0 40-28.5 69.5T1602 1003v44q0 16-10.5 27.5T1566 1086q-17 0-28.5-12t-11.5-28v-43q-19-5-37-14.5t-32.5-24-23-33-7.5-40.5z"/></svg>