<svg xmlns="http://www.w3.org/2000/svg" viewBox="0 0 2292 2048"><path d="M0 851q0-97 35-183.5T131 514t142.5-110T449 352V248h-44q-19 0-32-13t-13-34q0-18 12.5-30t32.5-12h182q16 0 30 12t14 30q0 21-14 34t-30 13h-48v101q72 8 138.5 32.5T801 448l47-46q21-21 49-20.5t48 20.5q22 18 22 47t-22 48l-48 48q50 62 78 140t28 166q0 103-39 194.5t-108 160T696.5 1314 503 1354q-105 0-196.5-40T147 1205.5t-107.5-160T0 851zm105 0q0 81 31 152.5t84.5 125.5 125 85.5T499 1246t154.5-31.5T779 1129t84-125 31-153q0-81-31-153t-84-125.5T654 488t-155-31q-82 0-153.5 31t-125 84.5T136 698t-31 153zm348 0V593q0-21 14.5-36t35.5-15 36 15.5 15 35.5v138l64-64q13-16 33.5-16t37.5 16q14 14 14 34t-14 37L539 888q-7 7-16.5 10t-19.5 3q-6 0-10.5-1t-9.5-3q-14-6-22-18t-8-28zm562 615v-217q64-82 101-184t37-214q0-149-64-278 37-56 37-125 0-47-16.5-89t-50.5-74q-10-9-21-18t-23-16V-2q0-30 22-50.5t52-20.5h1129q30 0 52.5 20.5T2293-2v1468q0 30-22.5 50t-52.5 20H1089q-30 0-52-20t-22-50zm211-970q0 26 10 48t27 39 39.5 29 44.5 17v51q0 21 13.5 34t32.5 13 32.5-12.5T1439 682v-53q55-13 89-47.5t34-82.5q0-50-37-88-24-25-57.5-37.5T1395 361q-11 0-24.5-2t-25-8-19-15-7.5-22q0-17 21.5-30.5T1395 270q10 0 23.5 2.5t25 8T1463 294t8 20q0 18 13 32.5t31 14.5q21 0 34.5-13.5T1563 314q0-26-10.5-47.5t-28-38.5-39-27.5T1441 184v-51q0-19-12.5-33T1397 86t-32.5 13-13.5 32v52q-55 11-90 46.5t-35 82.5q0 51 39 90 23 24 56.5 36.5T1395 451q10 0 23.5 3t24.5 9 19 15 8 21q0 16-21.5 30t-55.5 14q-11 0-24.5-2.5t-24.5-7-18.5-13-7.5-21.5q0-21-13.5-34.5T1272 451t-32.5 13.5T1226 496zm45 793h804v-115h-804v115zm0-270h804V905h-804v114zm451-267h353V638h-353v114zm0-255h353V379h-353v118zm0-258h353V122h-353v117z"/></svg>