<svg xmlns="http://www.w3.org/2000/svg" viewBox="0 0 2048 2048"><path d="M0 805q0-142 36.5-273T140 287.5t160.5-207T508-79.5t244-103 272-36.5 272.5 36.5 244.5 103 207 160 160 207T2011.5 532t36.5 273-36.5 272.5-103.5 244-160 207-207 160-244.5 103.5-272.5 37q-141 0-271.5-37T508 1688.5t-207.5-160-160.5-207T36.5 1077 0 805zm230 73q0 65 24.5 123t67.5 101 100.5 68 123.5 25q65 0 122.5-25t100-68 67.5-101 25-123q0-55-18-104t-50-88l31-30q14-13 14-30.5T824 595q-13-13-30.5-12.5T763 595l-29 29q-74-54-165-62v-63h30q10 0 18.5-8.5T626 470q0-11-8.5-19t-18.5-8H485q-13 0-21 7.5t-8 19.5q0 13 8 21t21 8h28v66q-59 6-110.5 32.5t-90 69T252 763t-22 115zm66 0q0-51 19.5-96t52.5-78.5 79-53 97-19.5 97 19.5 79 53 52.5 78T792 878q0 51-19.5 96t-52.5 79.5-79 54-97 19.5-97-19.5-79-54-52.5-79.5-19.5-96zm218 0q0 22 20 29 3 2 12 3 15 0 23-8l95-95q8-10 8-23t-8-21q-11-10-24-10t-22 10l-40 39v-85q0-13-9.5-23.5T546 683q-14 0-23 10.5t-9 23.5v161zm355 388q0 19 13 32t32 13h711q19 0 33-12.5t14-32.5V342q0-19-13.5-32t-33.5-13H914q-19 0-32 12.5T869 342v160q8 5 14 10t13 10q21 19 31 46t10 56q0 43-23 79 42 85 43 175 0 71-24 135.5T869 1129v137zm133-611q0-11 8-19.5t21-8.5 20.5 9 7.5 21q0 16 16.5 21.5t31.5 6.5q22 0 35-9.5t13-18.5q0-16-17-23t-29-7q-25 0-47-8t-36-24q-13-11-18.5-25.5T1002 539q0-29 22.5-51.5T1080 458v-33q0-13 8.5-20t21.5-7 20.5 8 7.5 20v32q27 8 51.5 28.5T1214 541q0 13-8.5 21t-21.5 8q-11 0-20-8.5t-9-20.5q0-16-17-22t-29-6q-22 0-36 8.5t-14 19.5q0 16 17.5 22.5t32.5 6.5q24 0 44.5 8t35.5 24q13 10 18.5 24.5t5.5 30.5q0 30-22 52t-55 29v35q0 13-8 20.5t-21 7.5-21-8.5-8-21.5v-33q-30-6-53.5-28t-22.5-55zm29 500v-73h505v73h-505zm0-171v-72h505v72h-505zm283-167v-73h222v73h-222zm0-161v-74h222v74h-222zm0-162v-73h222v73h-222z"/></svg>