<svg xmlns="http://www.w3.org/2000/svg" viewBox="0 0 1717 2048"><path d="M0 794q0-26 9.5-49.5T36 704t39-27.5 48-10.5q24-110 87.5-203.5t156-162T576 193t247-40q86 0 166.5 18t153.5 48q78-55 145-94 29-17 58-32.5t54.5-26.5 45.5-15 32 2q15 8 7.5 22.5T1460 114t-38.5 56.5-30 76-3.5 97.5 44 119q21 35 35 58.5t29 51.5h151q30 0 50.5 21t20.5 52v281q0 29-20.5 50t-51.5 21l-151 1q-31 72-77.5 137T1310 1253l-15 283h-238l-17-143q-53 17-106.5 24t-108.5 7q-58 0-110.5-6.5T609 1397l-17 139H367l-29-280q-81-65-135-151.5T123 919q-26-1-48-11.5t-39-27-26.5-39T0 794zm336 103h134v54h63v-54h38v-55h-38V672h-79L336 840v57zm65-55l66-105h3v105h-69zm150-488q7 23 27 30.5t36 1.5q59-23 109.5-33t99.5-10q43 0 93 9.5t108 33.5q22 6 40-3t26-31q6-19-3-36t-28-26q-67-23-126-36t-110-14q-58 1-117 15t-127 38q-18 9-26.5 25.5T551 354zm52 456q0 69 30.5 109t79.5 40q62 0 86.5-40T824 810q0-72-24.5-110T713 662q-49 0-79.5 33.5T603 810zm66-2q0-38 10-65.5t33-27.5 32.5 27.5T754 808t-9.5 65.5T712 901t-33-27.5-10-65.5zm178-71l31 47 53-42v209h69V672h-59zm218 214h68V822l105 129h90l-131-154 123-125h-88l-99 112V672h-68v279z"/></svg>