<svg xmlns="http://www.w3.org/2000/svg" viewBox="0 0 2048 2048"><path d="M0 805q0-142 36.5-273T140 287.5t160.5-207T508-79.5t244-103 272-36.5 272.5 36.5 244.5 103 207 160 160 207T2011.5 532t36.5 273-36.5 272.5-103.5 244-160 207-207 160-244.5 103.5-272.5 37q-141 0-271.5-37T508 1688.5t-207.5-160-160.5-207T36.5 1077 0 805zm359 1q0 40 27.5 68t67.5 30q19 75 62 141.5T621 1163l22 218h175l13-109q40 13 81 17.5t86 4.5q43 0 84-5.5t83-17.5l13 110h183l13-220q48-40 84-90t59-106l116-2q25 0 40.5-16.5T1689 909l-2-218q0-25-15.5-41t-39.5-16h-114q-11-21-22-39t-29-46q-29-50-33.5-92t3.5-75 24-59 29-44 18.5-29.5-5.5-17.5q-9-5-24.5-2t-35 11-42.5 20-44 26q-53 31-114 74-56-25-117.5-38T997 310q-102 0-192 30t-162 83.5-121 126T454 706q-40 1-67.5 30T359 806zm260 80v-46l91-129h61v132h30v43h-30v41h-48v-41H619zm51-43h53v-82h-2zm115-378q-6-15 1-28.5t22-19.5q53-19 98.5-29t90.5-10q78 0 182 38 15 7 22 19.5t2 27.5q-6 17-20 24.5t-30 2.5q-47-19-85-26.5t-71-7.5q-38 0-77.5 8.5T834 490q-13 5-28-1t-21-24zm41 353q0-63 23.5-89t62.5-26q48 0 66.5 30t18.5 85q0 53-18.5 84.5T912 934q-39 0-62.5-31.5T826 818zm52-1q0 30 7.5 50.5T911 888q17 0 24.5-20.5T943 817t-7.5-50.5T911 746q-18 0-25.5 20.5T878 817zm137-56l72-50h46v216h-52V766l-42 32zm169 166V711h51v87l79-87h67l-95 97 100 119h-67l-84-100v100h-51z"/></svg>