<svg xmlns="http://www.w3.org/2000/svg" viewBox="0 0 2048 2048"><path d="M0 805q0-142 36.5-272.5t103.5-244T300 81 507-79.5t244.5-103T1024-219t272.5 36.5 244.5 103T1748 81t160 207.5T2011.5 533t36.5 272q0 142-36.5 272.5t-103.5 244-160 207-207 160-244.5 103.5-272.5 37-272.5-37T507 1688.5t-207-160-160-207T36.5 1077 0 805zm507 505q1 72 37.5 116t103.5 68 164 31.5 218 7.5q119 0 214-7.5t162-31.5 103-68 36-116v-172q0-67-25-129.5T1449 898t-109-76.5-139-28.5H855q-77 0-140.5 29T605 899t-72 110.5-26 128.5v172zm234-891q0 58 22.5 111t61.5 92.5 91.5 62T1030 707q59 0 110.5-22.5t90-62 60.5-92 22-111.5-22-112-60.5-92.5-90-62.5-110.5-23q-61 0-113.5 23T825 214.5 763.5 307 741 419z"/></svg>