<svg xmlns="http://www.w3.org/2000/svg" viewBox="0 0 1858 2048"><path d="M0 437q128-128 280-214T595.5 94t333-43 333 43T1577 223t281 214l-145 140q-109-109-236.5-180.5t-266-107.5-282-36T647 289 380 397 143 577zm283 284q89-89 194.5-148.5t219-89T928 454t231.5 29.5 219.5 89T1574 721l-145 144q-104-104-234.5-156T928 657t-267 52-234 156zm290 284q73-73 166-110t190-37 191 36.5 169 110.5l-143 145q-45-46-101-68.5T930.5 1059 816 1081.5t-99 68.5zm208 386q0-31 12-58.5t32.5-47.5 47-31.5T929 1242q31 0 58 11.5t47 31.5 31.5 47.5 11.5 58.5q0 30-11.5 56t-31.5 45.5-47 31.5-58 12q-30 0-56.5-12t-47-31.5T793 1447t-12-56z"/></svg>