<svg xmlns="http://www.w3.org/2000/svg" viewBox="0 0 2048 2048"><path d="M0 805q0-142 36.5-273T140 287.5t160-207 207-160 244.5-103T1024-219t272.5 36.5 244.5 103 207 160 160 207T2011.5 532t36.5 273-36.5 272.5-103.5 244-160 207-207 160-244.5 103.5-272.5 37-272.5-37T507 1688.5t-207-160-160-207T36.5 1077 0 805zm383-196l99 98q112-112 253.5-168t288.5-56 288.5 56T1566 707l99-98q-88-88-193-147t-218-88.5-230.5-29.5-230 29.5T576 462 383 609zm198 197l98 99q72-72 161.5-107.5T1024 762t184 35.5T1369 905l98-99q-91-91-207-137t-236-46-236 45.5T581 806zm197 196l99 99q31-31 69.5-46t78.5-15 78.5 15 69.5 46l98-99q-51-51-115.5-76t-131-25T894 926t-116 76zm147 265q0 42 29 71.5t71 29.5q41 0 71-29t30-72q0-42-30-71t-71-29q-42 0-71 29t-29 71z"/></svg>