<svg xmlns="http://www.w3.org/2000/svg" viewBox="0 0 1630 2048"><path d="M0 711q0-136 52-256t141.5-210T403 103t256-52q90 0 174.5 23.5t157.5 67T1124 245t103.5 133 67 158 23.5 175q0 101-29.5 192t-80.5 170l385 384q38 40 38 94t-38 94q-41 38-94 37-26 0-50-9t-43-28l-385-386q-77 51-168.5 80.5T659 1369q-90 0-174.5-23.5t-157.5-66T194 1176 90.5 1042t-67-157T0 711zm158 0q0 103 39.5 194.5t108 158.5 160 106.5T659 1210q103 0 194.5-39.5t159-106.5 107-158.5T1159 711t-39.5-194.5-107-160-159-108T659 209t-194 39.5-159.5 108-108 160T158 711z"/></svg>