<svg xmlns="http://www.w3.org/2000/svg" viewBox="0 0 2048 2048"><path d="M0 805q0-142 36.5-273T140 287.5t160-207 207-160 244.5-103T1024-219t272.5 36.5 244.5 103 207 160 160 207T2011.5 532t36.5 273-36.5 272.5-103.5 244-160 207-207 160-244.5 103.5-272.5 37-272.5-37T507 1688.5t-207-160-160-207T36.5 1077 0 805zm358-123q0 106 40.5 200.5t110 164.5 164 110.5T873 1198q79 0 151-23t134-63l299 301q32 30 73 29 41 1 73-29 15-15 22.5-34.5t7.5-39-7.5-39-22.5-34.5l-300-300q40-62 63-133.5t23-150.5q0-106-41-200.5t-110.5-164-164-110T873 167t-200.5 40.5-164 110-110 164T358 682zm124 0q0-81 30.5-152.5T596 405t124.5-84T873 290t152.5 31 124.5 84 84 124.5 31 152.5-31 152-84 124-124.5 84-152.5 31-152-31-124-84-84-124-31-152z"/></svg>