<svg xmlns="http://www.w3.org/2000/svg" viewBox="0 0 1317 2048"><path d="M0 807q0-53 20-99t54.5-80.5 80-54T251 554q46 0 89 16.5t76 45.5l408-254q-6-13-8-28.5t-2-30.5q0-51 20-97t54-80.5T968 71t97-20q53 0 98.5 20t80 54.5 54.5 80 20 97.5q0 51-20 97t-54.5 80-80 54-98.5 20q-47 0-88.5-16.5T902 494L494 744q3 15 6.5 30.5T504 807q0 16-3.5 31t-6.5 29l408 252q33-30 74.5-47t88.5-17q53 0 98.5 20t80 54 54.5 80 20 98q0 51-20 97t-54.5 80.5-80 54.5-98.5 20q-51 0-97-20t-80-54.5-54-80-20-97.5q0-16 2-31t8-29L416 997q-33 27-76 42.5t-89 15.5q-51 0-96.5-19.5t-80-53-54.5-79T0 807z"/></svg>