<svg xmlns="http://www.w3.org/2000/svg" viewBox="0 0 2048 2048"><path d="M0 805q0-142 36.5-273T140 287.5t160-207 207-160 244.5-103T1024-219t272.5 36.5 244.5 103 207 160 160 207T2011.5 532t36.5 273-36.5 272.5-103.5 244-160 207-207 160-244.5 103.5-272.5 37-272.5-37T507 1688.5t-207-160-160-207T36.5 1077 0 805zm526 0q0 35 13 66t36.5 54.5T630 962t66 13q33 0 60.5-11t50.5-30l278 170q-6 23-6 42 0 35 13 66t36.5 54.5 54.5 37 66 13.5 66-13.5 54.5-37 36.5-54 13-66.5q0-35-13-66.5t-36.5-54.5-54-36.5T1249 975q-32 0-60 11.5t-51 30.5L862 847q5-23 5-42 0-21-5-42l276-171q23 19 51 30.5t60 11.5q35 0 66-13.5t54.5-36.5 36.5-54.5 13-66.5-13-66-36.5-54-54-36.5T1249 293q-35 0-66 13.5t-54.5 36.5-36.5 53.5-13 66.5q0 19 6 42L807 675q-23-19-50.5-30T696 634q-35 0-66 14t-54.5 36.5T539 738t-13 67z"/></svg>