<svg xmlns="http://www.w3.org/2000/svg" viewBox="0 0 1508 2048"><path d="M0 471q0-55 20-102.5T78 283l154-155q39-37 86.5-57T421 51q54 0 101.5 20t84.5 57l206 207q78 78 77 186 0 111-77 189l-20 18 38 38 19-19q38-38 86-57.5t102-19.5 101.5 20 84.5 57l207 205q38 38 58 86t20 100q0 55-20 103t-58 87l-154 154q-39 37-86.5 57t-101.5 20q-55 0-102.5-20t-85.5-57l-204-207q-37-37-57.5-84.5T619 1089t21-102.5 57-84.5l18-20-38-37-18 19q-39 37-86 57t-101 20q-55 0-102.5-20T283 864L78 658q-38-37-58-85T0 471zm166 0q0 39 29 71l205 205q14 14 32.5 21t38.5 7 38.5-7 32.5-21l18-19-96-96q-24-24-24-58.5t24-58.5 59-24 58 24l96 96 20-18q29-31 29-72 0-39-29-70L491 245q-31-29-70-29-19 0-38.5 7.5T351 245L195 400q-15 14-22 32.5t-7 38.5zm617 618q0 19 8 37.5t22 32.5l206 207q14 14 33 20.5t38.5 6.5 37.5-7 32-20l154-156q29-29 29-72 0-39-29-69l-205-205q-31-31-71-31-42 0-70 31l-21 18 47 47q18 18 33 32.5t16 16.5q25 24 25.5 58.5T1043 1095q-24 24-57.5 24t-57.5-24q-2-2-17-16.5t-33-32.5l-47-47-18 19q-14 14-22 32.5t-8 38.5z"/></svg>