<svg xmlns="http://www.w3.org/2000/svg" viewBox="0 0 2048 2048"><path d="M0 805q0-142 36.5-272.5t103.5-244T300 81 507-79.5t244.5-103T1024-219t272.5 36.5 244.5 103T1748 81t160 207.5T2011.5 533t36.5 272q0 142-36.5 272.5t-103.5 244-160 207-207 160-244.5 103.5-272.5 37-272.5-37T507 1688.5t-207-160-160-207T36.5 1077 0 805zm449-213q0 40 15 77t45 66l156 158q30 27 67 42.5t77 15.5 77-15.5 67-42.5l13-15 29 28-14 15q-27 29-43 65.5t-16 77.5q0 40 15.5 77t43.5 66l156 158q61 58 144 58 81 0 143-58l118-119q29-30 44-66.5t15-77.5q0-40-15.5-76.5T1542 960l-158-157q-29-29-66-44t-77-15q-41 0-77.5 15.5T1099 803l-16 14-28-28 15-14q29-30 44-66.5t15-77.5q0-40-15.5-76.5T1070 488L913 330q-61-58-143-58-83 0-144 58L509 449q-59 59-60 143zm127 0q0-33 23-54l118-119q10-9 23.5-15t29.5-6 29.5 6 24.5 15l157 159q23 21 22 53 0 30-22 55l-15 13-73-74q-18-18-44-18t-46 18q-19 19-19 45t19 45l75 74-15 14q-22 22-54.5 22T755 803L599 646q-23-23-23-54zm471 472q0-30 23-55l13-15 36 36q14 14 24.5 25.5t13.5 13.5q19 19 44.5 19t45.5-19q18-18 18-44t-18-46q-2-1-13.5-12.5T1208 942l-35-36 14-13q24-24 54-24 32 0 54 24l158 156q21 22 21 53 0 33-21 55l-118 118q-22 22-54 22t-54-22l-157-158q-23-19-23-53z"/></svg>