<svg xmlns="http://www.w3.org/2000/svg" viewBox="0 0 2048 2048"><path d="M0 805q0-142 36.5-272.5t103.5-244T300 81 507-79.5t244.5-103T1024-219t272.5 36.5 244.5 103T1748 81t160 207.5T2011.5 533t36.5 272q0 142-36.5 272.5t-103.5 244-160 207-207 160-244.5 103.5-272.5 37-272.5-37T507 1688.5t-207-160-160-207T36.5 1077 0 805zm433 515q0 32 22.5 53.5T510 1395h735q32 0 54-21.5t22-53.5V616l142-142v227q0 32 21.5 54t53.5 22 54.5-22 22.5-54V290q0-32-22.5-53.5T1538 215h-410q-32 0-53.5 22t-21.5 53q0 32 21.5 54.5T1128 367h226l-140 142H510q-32 0-54.5 22T433 584v736zm153-77V661h475L823 898q-23 23-23 54t23 54 54.5 23 53.5-23l238-238v475H586z"/></svg>