<svg xmlns="http://www.w3.org/2000/svg" viewBox="0 0 2048 2048"><path d="M0 805q0-142 36.5-272.5t103.5-244T300 81 507-79.5t244.5-103T1024-219t272.5 36.5 244.5 103T1748 81t160 207.5T2011.5 533t36.5 272q0 142-36.5 272.5t-103.5 244-160 207-207 160-244.5 103.5-272.5 37-272.5-37T507 1688.5t-207-160-160-207T36.5 1077 0 805zm219 144q0 33 23.5 57t56.5 24h229l302 300q9 9 23 9 5 0 11-2 21-8 21-30V303q0-22-21-30-19-8-34 7L528 582H299q-33 0-56.5 23.5T219 662v287zm748 4l99 98q50-51 75.5-115t25.5-131-25-131-76-115l-99 98q31 31 46.5 70t15.5 79-15.5 78-46.5 69zm196 197l99 98q91-91 137-207t46-236-46-236-137-208l-99 98q71 72 106.5 162t35.5 183.5-35.5 183.5-106.5 162z"/></svg>