<svg xmlns="http://www.w3.org/2000/svg" viewBox="0 0 2048 2048"><path d="M0 805q0-142 36.5-273T140 287.5t160-207 207-160 244.5-103T1024-219t272.5 36.5 244.5 103 207 160 160 207T2011.5 532t36.5 273q0 141-36.5 271.5t-103.5 244-160 207.5-207 160.5-244.5 103.5-272.5 37-272.5-37T507 1688.5 300 1528t-160-207.5-103.5-244T0 805zm357-128q0 16 4.5 28.5t10 22.5 11.5 17.5 9 11.5l8 7q7 6 32 30t72 70 128 125q-23 122-35 189t-16 97q-6 37-7 43-6 34 6.5 62t36.5 43.5 54 17.5 58-15l294-153 290 152q31 16 61.5 16.5t53.5-11.5 36.5-35.5 8.5-53.5l-57-352 237-231q38-40 38-81 0-40-26.5-67.5T1593 575l-327-47-147-294q-16-33-41-50.5t-55-17.5q-29 0-54 17.5T928 231L782 528l-329 47q-45 7-70.5 34.5T357 677z"/></svg>