<svg xmlns="http://www.w3.org/2000/svg" viewBox="0 0 1574 2048"><path d="M0 654q0-46 30.5-78t82.5-41l390-55 171-351q18-37 48-57.5T787 51q34 0 64 21.5t50 58.5l171 349 386 55q54 9 85.5 41t31.5 78q0 26-11.5 48.5T1529 750l-280 273 69 415q0 38-16 65.5t-43 41.5-60.5 13-69.5-21l-342-178-347 179q-33 21-69 18.5t-63.5-20.5-42.5-50.5-7-72.5q1-7 8-51 3-18 8-46t12.5-69 17-96.5T326 1023q-96-93-152-147.5T88.5 792 50 755l-8-8q-3-3-10.5-11.5T17 715 5 687.5 0 654zm202 29l261 258q16 13 21.5 31t2.5 36l-62 362 327-171q17-9 36-9t34 9l325 171-59-362q-3-18 2.5-36.5T1111 941l262-258-364-54q-18-2-34-14.5T951 586L787 256 623 586q-8 16-23.5 28T565 629z"/></svg>