<svg xmlns="http://www.w3.org/2000/svg" viewBox="0 0 2048 2048"><path d="M0 805q0-142 36.5-273T140 287.5t160-207 207-160 244.5-103T1024-219t272.5 36.5 244.5 103 207 160 160 207T2011.5 532t36.5 273q0 141-36.5 271.5t-103.5 244-160 207.5-207 160.5-244.5 103.5-272.5 37-272.5-37T507 1688.5 300 1528t-160-207.5-103.5-244T0 805zm589 596q0 23 11 39.5t28.5 24 37.5 4.5 36-19l323-323 324 323q15 16 34 19t36.5-5 29.5-24 12-39V205q0-27-19-47t-48-20H655q-29 0-47.5 19.5T589 205v1196zm132-159V272h608v970l-256-255q-21-22-48-21-29 0-47 21z"/></svg>