<svg xmlns="http://www.w3.org/2000/svg" viewBox="0 0 1755 2048"><path d="M0 929V677q0-14 9-28t23-16l210-31q9-30 19.5-53.5T286 497q-29-40-59-79t-61-80q-13-16-14-26.5t11-25.5q7-9 23.5-28t38-42.5T270 168t45.5-44 40-32.5T384 79q15 0 32 14l159 120q24-14 49.5-25t52.5-20q6-50 12.5-104T709-40q2-15 13.5-24t28.5-9h254q17 0 27.5 9.5T1046-38l33 206q24 9 50 19.5t50 22.5l165-120q13-9 27-9t27 12q24 21 50 43.5t51.5 47.5 48 51 39.5 51q18 25 0 50-29 43-59 81.5t-58 77.5q14 30 25.5 57t18.5 54l208 31q15 5 24 16.5t9 25.5v255q0 13-9 25t-24 15l-208 32q-9 30-20 53.5t-24 47.5q30 42 60 82t60 82q21 30 3 51-7 9-23.5 28t-38 42.5-45 47.5-46 44-40.5 33-27 13q-18 0-32-10l-159-123q-25 13-51 23.5t-52 19.5q-6 50-13.5 104.5T1046 1649q-5 15-14.5 24t-26.5 9H751q-17 0-28.5-10t-13.5-24l-31-208q-25-9-51-19t-51-22l-165 121q-27 19-53-3-48-42-100.5-92.5T168 1322q-8-11-8.5-24t8.5-26q30-43 60-81t58-78q-14-29-26-56t-20-54L33 970q-15-3-24-14.5T0 929zm585-123q0 61 23 113t63 92 92.5 63 113.5 23 113.5-23 92.5-63 63-92.5 23-112.5q0-62-23-115.5t-63-93.5-93-63-113-23q-61 0-113.5 23T671 597t-63 93.5T585 806z"/></svg>