<svg xmlns="http://www.w3.org/2000/svg" viewBox="0 0 2048 2048"><path d="M0 805q0-142 36.5-273T140 287.5t160-207 207-160 244.5-103T1024-219t272.5 36.5 244.5 103 207 160 160 207T2011.5 532t36.5 273q0 141-36.5 271.5t-103.5 244-160 207.5-207 160.5-244.5 103.5-272.5 37-272.5-37T507 1688.5 300 1528t-160-207.5-103.5-244T0 805zm359 93q0 11 7 20t18 11l158 26q6 19 15 40t19 43q-21 30-44 59t-46 62q-7 9-6.5 19.5t6.5 18.5q27 40 67 77.5t77 69.5q19 18 41 2l124-91q19 9 39 17t39 15l23 158q2 10 10.5 17.5t21.5 7.5h193q23 0 31-25 9-38 15-79t10-79q19-7 38.5-16t39.5-18l121 93q9 8 24 8 10 0 34.5-20.5t51-48 50-53 31.5-35.5q14-16-2-39-23-32-46-62t-46-62q10-19 19-37t15-40l158-24q11-2 18-12t7-19V709q0-10-6.5-19.5T1665 677l-158-24q-6-19-15-40t-19-44q22-30 45.5-58.5T1563 449q14-19 0-39-26-39-66.5-77t-77.5-69q-19-17-41-1l-124 90q-39-17-77-32l-25-156q-3-26-31-27H928q-26 0-32 25-9 38-14 79t-10 79q-41 14-78 34l-120-91q-13-10-24-10t-35 20.5-51 46.5-50 52.5-31 36.5q-10 11-9 20t11 20q23 32 46 61.5t45 59.5q-10 21-18.5 39.5T542 650l-158 24q-11 2-18 12t-7 21v191zm443-93q0-46 18-87t47.5-71.5 70-48T1024 581t86.5 17.5 70 48T1228 718t18 87-18 86-47.5 70-70 47.5-86.5 17.5-86.5-17.5-70-47.5-47.5-70.5-18-85.5z"/></svg>