<svg xmlns="http://www.w3.org/2000/svg" viewBox="0 0 2053 2048"><path d="M0 1382q0-32 12-59.5t32.5-48T93 1242t61-12h1748q33 0 61 12t48 32.5 31.5 48 11.5 59.5-11.5 60-31.5 49-48 33-61 12H154q-33 0-61-12t-48.5-33-32.5-49-12-60zm0-577q0-32 12-61t32.5-49.5T93 662t61-12h1748q33 0 61 12t48 32.5 31.5 49.5 11.5 61q0 33-11.5 61t-31.5 48.5-48 32.5-61 12H154q-33 0-61-12t-48.5-32.5T12 866 0 805zm0-578q0-32 12-60t32.5-49T93 85t61-12h1748q33 0 61 12t48 33 31.5 49 11.5 60q0 33-11.5 60.5T2011 335t-48 31.5-61 11.5H154q-33 0-61-11.5T44.5 335 12 288 0 227z"/></svg>