<svg xmlns="http://www.w3.org/2000/svg" viewBox="0 0 2048 2048"><path d="M0 805q0-142 36.5-273T140 287.5t160-207 207-160 244.5-103T1024-219t272.5 36.5 244.5 103 207 160 160 207T2011.5 532t36.5 273q0 141-36.5 271.5t-103.5 244-160 207.5-207 160.5-244.5 103.5-272.5 37-272.5-37T507 1688.5 300 1528t-160-207.5-103.5-244T0 805zm359 373q0 41 29 70.5t70 29.5h1132q41 0 70-29.5t29-70.5-29-70-70-29H458q-41 0-70 29t-29 70zm0-373q0 41 29 70t70 29h1132q41 0 70-29t29-70q0-42-29-71.5t-70-29.5H458q-41 0-70 29t-29 72zm0-375q0 41 29 70t70 29h1132q41 0 70-29t29-70-29-70.5-70-29.5H458q-41 0-70 29.5T359 430z"/></svg>