<svg xmlns="http://www.w3.org/2000/svg" viewBox="0 0 2048 2048"><path d="M0 805q0-142 36.5-273T140 287.5t160-207 207-160 244.5-103T1024-219t272.5 36.5 244.5 103 207 160 160 207T2011.5 532t36.5 273q0 141-36.5 271.5t-103.5 244-160 207.5-207 160.5-244.5 103.5-272.5 37-272.5-37T507 1688.5 300 1528t-160-207.5-103.5-244T0 805zm541 433q0 35 13.5 66.5t37 55 55 37T713 1410h622q35 0 66.5-13.5t55-37 37-55 13.5-66.5V818q0-32-10.5-60.5T1466 706t-46.5-37.5T1362 649V535q0-70-26.5-131T1263 297t-107.5-72.5T1024 198t-131.5 26.5T785 297t-72 107-26 131v114q-31 5-58 19.5T582.5 706 552 757.5 541 818v420zm268-592V535q0-45 16.5-83.5t46-68T940 337t84-17 83.5 17 68 46.5 46.5 68 17 83.5v111H809zm111 295q0-43 30.5-73.5T1024 837t73.5 30 30.5 74q0 33-20 59.5t-50 37.5v179q0 15-9.5 24.5t-24.5 9.5-24.5-9.5-9.5-24.5v-179q-30-10-50-37t-20-60z"/></svg>