<svg xmlns="http://www.w3.org/2000/svg" viewBox="0 0 1210 2048"><path d="M0 1319V797q0-35 11.5-68.5t31.5-61T91 620t61-31l-37-114q-23-80-16.5-163T143 155q40-75 104-128.5T393-54q81-25 163-17.5T713-26q77 40 130.5 103.5T925 221q9 31-7 59.5T871 318q-32 10-58.5-4.5T776 270q-18-51-51.5-92T643 113q-48-26-100.5-31T440 94q-54 16-94 49.5T280 224q-26 50-29 101.5T265 429l48 152h680q43 0 82.5 17t69.5 46.5 47.5 68.5 17.5 84v522q0 46-17.5 86t-47.5 69-69 45.5-83 16.5H217q-46 0-85-16.5T63.5 1474 17 1405t-17-86zm474-372q0 45 24 78t64 46v223q0 18 13.5 30t31.5 12q17 0 28.5-12t11.5-30v-223q38-13 62-46t24-78q0-25-10.5-47.5T695 859t-40-28-48-10q-27 0-52 10t-42.5 28-28 40.5T474 947z"/></svg>