<svg xmlns="http://www.w3.org/2000/svg" viewBox="0 0 2048 2048"><path d="M0 805q0-142 36.5-273T140 287.5t160-207 207-160 244.5-103T1024-219t272.5 36.5 244.5 103 207 160 160 207T2011.5 532t36.5 273q0 141-36.5 271.5t-103.5 244-160 207.5-207 160.5-244.5 103.5-272.5 37-272.5-37T507 1688.5 300 1528t-160-207.5-103.5-244T0 805zm541 470q0 35 13.5 67t37 55.5 55 37T713 1448h622q35 0 66.5-13.5t55-37 37-55 13.5-67.5V856q0-35-13.5-66.5t-37-55-55-37.5-66.5-14H790l-39-121q-13-40-9.5-82t24.5-81q19-38 51.5-65.5T891 294q85-26 164 13 39 19 66.5 52.5T1161 433q8 25 30 37t47 3q24-7 36-29.5t4-46.5q-19-65-62-116t-104-82q-61-32-127-38t-131 15-115.5 63T656 342q-31 61-36.5 127T634 600l29 91q-54 16-88 61.5T541 856v419zm379-297q0-43 30.5-73.5T1024 874t73.5 30.5T1128 978q0 33-20 59.5t-50 37.5v179q0 15-9.5 25t-24.5 10-24.5-10-9.5-25v-179q-30-11-50-37.5T920 978z"/></svg>