<svg xmlns="http://www.w3.org/2000/svg" viewBox="0 0 1632 2048"><path d="M0 743q0-112 29-216t82.5-195T239 166 404 38t195-82 217-29q112 0 216 29t195 82 165.5 128 128 166 82.5 195 29 216-29 216.5-82.5 195.5-128 165-165.5 127.5-195 82.5-216 29q-169 0-317.5-64T239 1320 64 1060.5 0 743zm173 0q0 133 50.5 250t138 204.5 204.5 138 250 50.5 250.5-50.5 205-138 138.5-205 51-249.5q0-133-51-250.5t-138.5-205-205-138.5T816 98t-250 51-204.5 138.5-138 205T173 743zm579 94V301q0-26 19-45t45-19q25 0 44 18.5t19 45.5v381l158-157q19-19 45.5-19.5T1128 525q19 19 19 45.5t-19 45.5L859 882q-9 9-21 14.5t-22 5.5q-26 0-44.5-19T752 837z"/></svg>