<svg xmlns="http://www.w3.org/2000/svg" viewBox="0 0 2048 2048"><path d="M0 805q0-142 36.5-273T140 287.5t160-207 207-160 244.5-103T1024-219q141 0 271.5 36.5t244.5 103 207.5 160 160.5 207T2011.5 532t36.5 273-36.5 272.5-103.5 244-160.5 207-207.5 160-244.5 103.5-271.5 37q-142 0-272.5-37T507 1688.5t-207-160-160-207T36.5 1077 0 805zm409 0q0 85 22 163t62.5 146 96.5 124.5 124 96.5 146.5 61.5T1024 1418t163-21.5 146-61.5 124.5-96.5T1554 1114t62-146.5 22-162.5q0-85-22-164t-62-147-96.5-124-124.5-96.5-146-62-163-21.5q-127 0-239 48.5t-195.5 132-132 195.5T409 805zm129 0q0-101 38.5-189t104-154.5 154-104.5 189.5-38 189 38 153.5 104.5 104 154.5 38.5 189-38.5 188.5-104 153.5-153.5 104-189 38-189.5-38-154-104-104-154T538 805zm436 70q0 19 14 34.5t35 15.5q19 0 34-15l202-201q14-15 14-35t-14-35q-15-14-34.5-14t-33.5 14l-120 120V472q0-21-14.5-35t-33.5-14q-21 0-35 14t-14 35v403z"/></svg>