<svg xmlns="http://www.w3.org/2000/svg" viewBox="0 0 2281 2048"><path d="M0 847q0-106 40-199.5t109.5-163 163.5-110T513 334t199.5 40.5 162.5 110 109.5 163T1025 847t-40.5 200T875 1210t-162.5 109.5T513 1360t-200-40.5T149.5 1210 40 1047 0 847zm109 0q0 85 31 158.5t86 128.5 128.5 86 158.5 31q83 0 157-31t129-86 87-129 32-158q0-83-32-157t-87-129-128.5-87T513 442q-85 0-158.5 32T226 561t-86 128.5T109 847zm362 59V568q0-16 12.5-28t28.5-12 28.5 12 12.5 28v241l98-99q13-13 29.5-13t28.5 13q13 13 12.5 28.5T709 766L541 936q-13 10-29 10-10 0-16-2-25-11-25-38zm538 559v-217q63-82 99-183.5t36-213.5q0-37-3-81t-16.5-93.5T1084 574t-75-107V-2q0-30 20-50.5t50-20.5h1130q30 0 51 20.5T2281-2v1467q0 30-21 50.5t-51 20.5H1079q-30 0-50-20.5t-20-50.5zm252-177h804v-115h-804v115zm0-267h804V904h-804v117zm0-259h804V646h-804v116zm0-257h804V389h-804v116zm0-258h804V131h-804v116z"/></svg>