<svg xmlns="http://www.w3.org/2000/svg" viewBox="0 0 2048 2048"><path d="M0 805q0-142 36.5-273T140 287.5t160.5-207T508-79.5t244-103 272-36.5 272.5 36.5 244.5 103 207 160 160 207T2011.5 532t36.5 273q0 141-36.5 271.5t-103.5 244-160 207.5-207 160.5-244.5 103.5-272.5 37q-141 0-271.5-37T508 1688.5 300.5 1528 140 1320.5t-103.5-244T0 805zm233 72q0 67 26 126t69 102.5 102.5 69T557 1200q66 0 125-25.5t102-69 69-102.5 26-126q0-66-26-126t-69-103-102-69-125-26q-67 0-126.5 26T328 648t-69 102.5T233 877zm68 0q0-53 20-99.5t54.5-81 81-54.5T557 622q53 0 99 20t80.5 54.5 54.5 81 20 99.5-20 99.5-54.5 81.5-81 55-98.5 20q-54 0-100.5-20t-81-55-54.5-82-20-99zm229 37q0 17 16 24 2 1 4.5 1h4.5q11 0 19-6l106-107q8-8 8-18t-8-18q-8-7-18.5-7t-16.5 7l-63 63V702q0-10-7.5-17.5T555 677q-10 0-17.5 7t-7.5 18v212zm339 352q0 19 13 32t31 13h713q19 0 32-12.5t13-32.5V342q0-19-12.5-32t-32.5-13H913q-18 0-31 12.5T869 342v296q31 34 48 67t25.5 64 10 59 1.5 51q0 72-22.5 135.5T869 1130v136zm158-112v-72h508v72h-508zm0-168v-73h508v73h-508zm0-163v-72h508v72h-508zm0-162v-72h508v72h-508zm0-163v-72h508v72h-508z"/></svg>