<svg xmlns="http://www.w3.org/2000/svg" viewBox="0 0 2053 2048"><path d="M0 1383q0-32 12-60t32.5-48.5T93 1242t59-12q32 0 60 12t49 32.5 33 48.5 12 60-12 60-33 48.5-49 32.5-60 12q-31 0-59-12t-48.5-32.5T12 1443t-12-60zm0-578q0-31 12-59t32.5-48.5T93 665t59-12q32 0 60 12t49 32.5 33 48.5 12 59q0 32-12 60t-33 48.5-49 32.5-60 12q-31 0-59-12t-48.5-32.5T12 865 0 805zm0-580q0-32 12-60t32.5-48.5T93 84t59-12q32 0 60 12t49 32.5 33 48.5 12 60-12 60-33 48.5-49 32.5-60 12q-31 0-59-12t-48.5-32.5T12 285 0 225zm458 1160q0-31 13-62 13-27 32-49 22-22 48-33 15-6 29.5-8.5t32.5-2.5h1289q17 0 32 2.5t29 8.5q26 11 48 33 9 11 17.5 23.5t13.5 25.5q11 27 12 62 0 34-12 61-6 14-13.5 25t-17.5 22q-19 19-48 32-15 6-29.5 8.5t-31.5 2.5H613q-17 0-32-3t-30-8q-29-13-48-32-21-21-32-47-13-29-13-61zm0-579q0-29 13-60 13-27 32-49 22-22 48-33 27-11 62-11h1289q34 0 61 11 26 11 48 33 9 11 17.5 23.5T2042 746q11 27 12 60 0 34-12 60-6 15-13.5 26.5T2011 914q-18 21-48 33-30 10-61 11H613q-33 0-62-11-30-13-48-33-21-21-32-48-13-29-13-60zm0-579q0-30 13-60 13-27 32-49 10-10 22-19.5T551 83q27-11 62-11h1289q34 0 61 11 14 6 26 15t22 20q9 11 17.5 23t13.5 26q11 27 12 60 0 34-12 61-6 14-13.5 26t-17.5 21q-19 19-48 32-15 6-29.5 8.5T1902 378H613q-17 0-32-2.5t-30-8.5q-29-13-48-32-19-17-32-47-13-29-13-61z"/></svg>