<svg xmlns="http://www.w3.org/2000/svg" viewBox="0 0 2048 2048"><path d="M0 805q0-142 36.5-273T140 287.5t160.5-207T508-79.5t244-103 272-36.5 272.5 36.5 244.5 103 207 160 160 207T2011.5 532t36.5 273-36.5 272.5-103.5 244-160 207-207 160-244.5 103.5-272.5 37q-141 0-271.5-37T508 1688.5t-207.5-160-160.5-207T36.5 1077 0 805zm360 374q0 21 8 38.5t21 31 31 21.5 39 8 39.5-8 31.5-21.5 21-31 8-38.5q0-41-29-70t-71-29q-41 0-70 29t-29 70zm0-373q0 41 29 69.5t70 28.5 70.5-28.5T559 806t-29-70.5-71-29.5q-41 0-70 29.5T360 806zm0-375q0 41 29 69.5t70 28.5 70.5-28.5T559 431t-29-70.5-71-29.5q-41 0-70 29.5T360 431zm297 750q0 23 8 38 7 19 21 31 7 6 14 11.5t17 9.5q18 7 40 7h833q21 0 40-7 9-3 16.5-9t14.5-12q11-12 20-31 7-17 7-38 0-22-7-39-8-17-20-32-13-13-31-22-9-3-19-5.5t-21-2.5H757q-11 0-21 2.5t-19 5.5q-18 9-31 22-14 14-21 32-8 16-8 39zm0-374q0 23 8 39 6 16 21 31 14 14 31 20 18 7 40 7h833q21 0 40-7 17-7 31-20 6-7 10.5-14.5t9.5-16.5q7-17 7-39t-7-39q-8-17-20-32-13-13-31-22-9-3-19-5.5t-21-2.5H757q-11 0-21 2.5t-19 5.5q-18 9-31 22-14 14-21 32-8 16-8 39zm0-375q0 23 8 39 7 19 21 31 14 14 31 20 18 7 40 7h833q21 0 40-7 17-7 31-20 11-12 20-31 7-17 7-39 0-19-7-39-8-17-20-32-13-13-31-22-9-3-19-5.5t-21-2.5H757q-11 0-21 2.5t-19 5.5q-18 9-31 22-14 14-21 32-8 17-8 39z"/></svg>