<svg xmlns="http://www.w3.org/2000/svg" viewBox="0 0 994 2048"><path d="M0 782V643q0-23 15.5-38T54 590t39 15.5 16 37.5v139q0 79 30.5 149.5t83 123T346 1138t152 31q80 0 151-31t123.5-83.5 83-123T886 782V643q0-23 16-38t39-15q22 0 37.5 15.5T994 643v139q0 95-34 180t-94 150.5T724.5 1221 551 1274v176h215q23 0 38 16t15 39-15 38.5-38 15.5H227q-23 0-38-15.5t-15-38.5 15.5-39 37.5-16h216v-176q-93-10-173.5-53T129 1112.5 34.5 962 0 782zm200-6V350q0-62 23.5-116.5t64-95 95-64T498 51q62 0 115.5 23.5t93.5 64 63 95T793 350l-1 426q0 61-23 115t-63 94-93.5 63.5T497 1072t-116-23.5-94-63.5-63.5-94T200 776z"/></svg>