<svg xmlns="http://www.w3.org/2000/svg" viewBox="0 0 2048 2048"><path d="M0 805q0-142 36.5-273T140 287.5t160-207 207-160 244.5-103T1024-219t272.5 36.5 244.5 103 207 160 160 207T2011.5 532t36.5 273q0 141-36.5 271.5t-103.5 244-160 207.5-207 160.5-244.5 103.5-272.5 37-272.5-37T507 1688.5 300 1528t-160-207.5-103.5-244T0 805zm577-23q0 86 31 163t84.5 135.5 126 97T976 1225v159H782q-21 0-35 14.5t-14 34.5q0 19 14 33.5t35 14.5h484q21 0 35-14t14-34q0-21-14-35t-35-14h-194v-159q83-9 156.5-47.5t127-97 84.5-136 31-162.5V658q0-21-14.5-35t-34.5-14q-19 0-33.5 14.5T1374 658v124q0 72-27.5 136t-75 111.5T1160 1104t-136 27-136-27-111.5-74.5-75-111.5T674 782V658q0-21-14-35t-35-14q-19 0-33.5 14.5T577 658v124zm180-5q0 55 21 103.5t57 84.5 84.5 57 103.5 21 104-21 85-57 57-84.5 21-103.5l1-383q0-55-21-104t-57-85-85-57-104-21-104 21-85 57-57 85-21 104v383z"/></svg>