<svg xmlns="http://www.w3.org/2000/svg" viewBox="0 0 2048 2048"><path d="M0 805q0-142 36.5-272.5t103.5-244T300.5 81 508-79.5t244-103 272-36.5 272.5 36.5 244.5 103T1748 81t160 207.5T2011.5 533t36.5 272q0 142-36.5 272.5t-103.5 244-160 207-207 160-244.5 103.5-272.5 37q-141 0-271.5-37T508 1688.5t-207.5-160-160.5-207T36.5 1077 0 805zm406 81q0 24 16 39 7 8 17 12t20 4h140l110 27-35 137q-6 19 5 37t31 24l308 76q3 1 12 1 14 0 26-6 18-10 23-31l34-137 463 115q9 2 14 2 18 0 33-11 21-15 20-44V421q0-26-20-43-21-16-47-10L599 613H459q-23 0-38 16t-15 38v219zm376 195l23-89 212 53-23 90z"/></svg>