<svg xmlns="http://www.w3.org/2000/svg" viewBox="0 0 2048 2048"><path d="M0 803q0-142 36.5-272T140 287.5t160-207 207-160 244.5-103T1024-219t272.5 36.5 244.5 103 207 160 160 207T2011.5 532t36.5 271q0 142-36.5 273T1908 1320.5 1748 1528t-207 160.5-244.5 103.5-272.5 37-272.5-37T507 1688.5 300 1528t-160-207.5T36.5 1076 0 803zm585 5l189 400h500l189-400q-38-33-76-72-33-33-71.5-78T1241 558q-35-55-59.5-110t-40-108-22.5-102-7-91q0-8-9-9t-21 1q-13 2-28 8v686q25 7 41.5 26.5T1112 903q0 30-25.5 51.5T1024 976t-62.5-21.5T936 903q0-24 16.5-43.5T994 833V147q-17-6-29-8-11-2-20-1t-9 9q0 41-7 90.5T906.5 340t-40 108T807 558t-74 100-72 78q-38 39-76 72zm58 662h762v-149H643v149z"/></svg>