<svg xmlns="http://www.w3.org/2000/svg" viewBox="0 0 2048 2048"><path d="M0 805q0-142 36.5-273T140 287.5t160.5-207T508-79.5t244-103 272-36.5 272.5 36.5 244.5 103 207 160 160 207T2011.5 532t36.5 273q0 141-36.5 271.5t-103.5 244-160 207.5-207 160.5-244.5 103.5-272.5 37q-141 0-271.5-37T508 1688.5 300.5 1528 140 1320.5t-103.5-244T0 805zm338 157q15 80 51 135.5t84.5 88.5 106 44.5T694 1233q57-8 104-37.5t78-72.5 45-96 6-110q-8-50-32-92.5t-59-74-79.5-50T664 680q11-45 32-77t47-54.5 58.5-37.5 68.5-25q5-1 7-8 1-3 1-6l-15-94-2-4q-3-3-11-4-123 14-224 66T455.5 567t-101 180.5T338 962zm785 0q15 80 51 135.5t85.5 88.5 106.5 44.5 114 2.5q57-8 104-37.5t78.5-72.5 45-96 4.5-110q-8-50-31.5-92.5t-59-74-79.5-50-93-20.5q11-45 32-77t47.5-54.5T1588 511t68-25q5-1 7-8 1-3 1-6l-15-94q0-2-2-4-3-3-12-4-123 14-224 66t-169.5 131T1141 747.5 1123 962z"/></svg>