<svg xmlns="http://www.w3.org/2000/svg" viewBox="0 0 1587 2048"><path d="M0 1218V354q0-34 13-65t35.5-53 53.5-35.5 65-13.5h1254q34 0 65 13.5t53 35.5 35 53 13 65v864q0 34-13 64t-35 52.5-53 35-65 12.5h-170l-1 215q0 42-23.5 63.5T1175 1682q-11 0-27.5-5t-33.5-22l-277-273H167q-34 0-65-12.5t-53.5-35-35.5-52T0 1218zm125 0q0 16 12.5 28.5T167 1259h720l239 235 1-235h294q17 0 29-12.5t12-28.5V354q0-17-12-29.5t-29-12.5H167q-17 0-29.5 12.5T125 354v864zm172-252q0-26 18-45t44-19h870q26 0 43.5 18.5T1290 966q0 25-17.5 43t-43.5 18H359q-26 0-44-18t-18-43zm0-352q0-25 18-43t44-18h870q26 0 43.5 18t17.5 43q0 26-17.5 44.5T1229 677H359q-26 0-44-18.5T297 614z"/></svg>