<svg xmlns="http://www.w3.org/2000/svg" viewBox="0 0 2048 2048"><path d="M0 805q0-142 36.5-273T140 287.5t160-207 207-160 244.5-103T1024-219t272.5 36.5 244.5 103 207 160 160 207T2011.5 532t36.5 273-36.5 272.5-103.5 244-160 207-207 160-244.5 103.5-272.5 37-272.5-37T507 1688.5t-207-160-160-207T36.5 1077 0 805zm453 342q0 15 10.5 25.5T488 1183h616l205 200v-200h250q15 0 25-10.5t10-25.5V410q0-15-10-25t-25-10H488q-14 0-24.5 10T453 410v737zm147-214q0-23 15.5-38.5T653 879h742q22 0 37.5 15.5T1448 933t-15.5 37.5T1395 985H653q-22 0-37.5-15T600 933zm0-300q0-23 15.5-38.5T653 579h742q22 0 37.5 15.5T1448 633t-15.5 38-37.5 15H653q-22 0-37.5-15T600 633z"/></svg>