<svg xmlns="http://www.w3.org/2000/svg" viewBox="0 0 2048 2048"><path d="M0 805q0-142 36.5-272.5t103.5-244T300.5 81 508-79.5t244-103 272-36.5q141 0 271.5 36.5t244.5 103T1747.5 81 1908 288.5 2011.5 533t36.5 272-36.5 271.5-103.5 244-160.5 207.5-207.5 160.5-244.5 103.5-271.5 37-271.5-37T508 1688.5 300.5 1528 140 1320.5t-103.5-244T0 805zm153 0q0 120 31.5 231t88 208 136 176 176 136 208 88 231.5 31 231-31 207.5-88 176-136 136-176 88-208 31.5-231-31.5-231-88-207.5-136-176-176-136-207.5-88T1024-65 792.5-33.5t-208 88-176 136-136 176-88 207.5T153 805zm678-470q0-40 15-75t41-61 61-41.5 75-15.5 75.5 15.5T1160 199t41.5 61 15.5 75-15.5 75.5T1160 472t-61.5 41-75.5 15-75-15-61-41-41-61.5-15-75.5zm30 1040V777q0-39 26.5-66.5T953 683h141q39 0 65.5 27.5T1186 777v598q0 39-26.5 66.5T1094 1469H953q-39 0-65.5-27.5T861 1375z"/></svg>