<svg xmlns="http://www.w3.org/2000/svg" viewBox="0 0 2048 2048"><path d="M0 805q0-142 36.5-273T140 287.5t160-207 207-160 244.5-103T1024-219t272.5 36.5 244.5 103 207 160 160 207T2011.5 532t36.5 273-36.5 272.5-103.5 244-160 207-207 160-244.5 103.5-272.5 37-272.5-37T507 1688.5t-207-160-160-207T36.5 1077 0 805zm831-469q0 40 15.5 75t41 61 60.5 41.5 75 15.5 75-15.5 61-41.5 41.5-61 15.5-75-15.5-75-41.5-61-61-41.5-75-15.5-75 15.5-60.5 41.5-41 61-15.5 75zm30 1038q0 38 27 65t65 27h141q38 0 65-27.5t27-64.5V777q0-39-27.5-66.5T1094 683H953q-38 0-65 27.5T861 777v597z"/></svg>