<svg xmlns="http://www.w3.org/2000/svg" viewBox="0 0 1026 2048"><path d="M2 504q4-75 32-148t83-133Q252 76 457 55q29-3 60-4 80 0 156 23t139 65.5 111.5 102T997 374q40 114 25 222t-81 212q-19 31-41 60t-45 59q-33 46-56 95t-29 105q0 8-.5 15.5t-.5 15.5q0 33-21 52.5t-58 19.5H578.5l-79-.5-77-.5H331q-32-1-53-19.5t-21-44.5q0-61-19.5-115.5T183 945q-29-39-57-76.5T73 790q-39-63-57-137T2 504zm116.5 18q-.5 57 14 110.5T174 728q14 24 31 48t35 49q10 13 20 26.5t19 27.5q78 109 94 233h281q11-126 106-254 6-8 12-15.5t12-16.5q16-22 30.5-41.5T842 744q105-160 45-333-19-54-56-98t-86-77-107.5-50.5T517 168q-25 0-47 3-159 15-267 132-45 49-64.5 105.5t-20 113.5zM265 1359q0-21 16-35.5t39-14.5h389q23 0 38.5 14.5T763 1359q0 22-16 36.5t-38 14.5H320q-23 0-39-14.5t-16-36.5zm66 130h365q-58 86-162 100-30 3-60.5-4.5t-57-21.5-49-33.5T331 1489z"/></svg>