<svg xmlns="http://www.w3.org/2000/svg" viewBox="0 0 2048 2048"><path d="M0 805q0-142 36.5-273T140 287.5t160.5-207T508-79.5t244-103 272-36.5 272.5 36.5 244.5 103 207 160 160 207T2011.5 532t36.5 273-36.5 272.5-103.5 244-160 207-207 160-244.5 103.5-272.5 37q-141 0-271.5-37T508 1688.5t-207.5-160-160.5-207T36.5 1077 0 805zm564.5-285q-3.5 67 13 133.5T630 776q23 37 48 71t50 70q32 45 49 93t17 103q0 24 19.5 41t47.5 17h82l69 1 71 1h101q32 0 51-18t19-48q0-7 .5-14t1.5-14q5-50 25.5-93.5T1331 901q19-26 39.5-53.5T1409 793q58-93 72.5-190.5T1459 403q-23-65-66-118.5t-100.5-92-125.5-59-141-20.5q-26 0-51 4-185 19-306 152-49 55-75 119.5T564.5 520zM802 1289q0 18 14.5 31.5T851 1334h349q21 0 35-13.5t14-31.5q0-19-14-32.5t-35-13.5H851q-21 0-35 13.5t-14 32.5zm59 117q13 19 33 36t44 30 51.5 19.5 53.5 3.5q95-13 146-89H861z"/></svg>