<svg xmlns="http://www.w3.org/2000/svg" viewBox="0 0 2048 2048"><path d="M0 960V198q0-31 11.5-57.5T43 94t46-31.5T146 51h1109q31 0 57 11.5t46 31.5 31.5 46.5T1401 198v109h500q31 0 57.5 11.5T2005 350t31.5 46.5T2048 454v763q0 30-11.5 57t-31.5 47-47 31-57 11h-149l-1 189q0 38-21 56.5t-47 18.5q-9 0-23-4.5t-30-19.5l-245-240H792q-31 0-57-11t-46-31-31.5-47-11.5-57v-94l-229 224q-16 15-29.5 19.5T363 1371q-25 0-46-19t-21-56v-189H146q-31 0-57-11t-46-31-31.5-47T0 960zm755 257q0 15 11 26t26 11h638l211 207v-207h260q16 0 26-11t10-26V454q0-15-10-26t-26-11H792q-15 0-26 11t-11 26v763z"/></svg>