<svg xmlns="http://www.w3.org/2000/svg" viewBox="0 0 2048 2048"><path d="M0 805q0-142 36.5-273T140 287.5t160-207 207-160 244.5-103T1024-219q141 0 271.5 36.5t244.5 103 207.5 160 160.5 207T2011.5 532t36.5 273-36.5 272.5-103.5 244-160.5 207-207.5 160-244.5 103.5-271.5 37q-142 0-272.5-37T507 1688.5t-207-160-160-207T36.5 1077 0 805zm306 197q0 13 8 21t21 8h225l1 162 166-162V605q0-24 9-45.5t24.5-37T797 498t45-9h392v-86q0-13-8.5-21t-19.5-8H335q-13 0-21 8.5t-8 20.5v599zm507 201q0 13 8.5 21t20.5 8h501l166 163 1-163h203q11 0 20-8t9-21V605q0-13-8.5-21t-20.5-8H842q-13 0-21 8t-8 21v598z"/></svg>