<svg xmlns="http://www.w3.org/2000/svg" viewBox="0 0 1484 2048"><path d="M0 1479V109q0-23 17-40.5T57 51h1370q23 0 40.5 17.5T1485 109v1370q0 23-17.5 40t-40.5 17H57q-23 0-40-17t-17-40zm114-57h1256V504H114v918zm159-365q0-23 16.5-39t39.5-16q25 0 41 16t16 39q0 21 8 38t21.5 29.5 30.5 20 36 7.5q40 0 68-27.5t28-67.5q0-19-7.5-36.5t-20.5-30-30-20-38-7.5q-7 0-16-2-1 0-1-1-6-1-9-4t-6-5h-1l-2-1q-5-2-7-6.5t-5-8.5q-1 0-1-1-2-6-4.5-10.5T426 913v-3l-1-3q0-9 5-14 0-1 1-3 0-7 3-11t5-8l79-98H329q-23 0-39.5-17.5T273 715q0-24 16.5-40t39.5-16h308q16 0 29.5 7.5T687 690q6 16 4.5 31.5T680 751l-98 123q49 26 80.5 75.5T694 1057q0 45-16.5 83t-45.5 66.5-67 45.5-83 17q-43 0-81-17t-66.5-45.5-45-66.5-16.5-83zm518 0V869q0-43 16.5-81.5t45-66.5 67-45 81.5-17 81.5 17 67 45 45 66 16.5 82v188q0 45-16.5 83t-45 66.5-67 45.5-81.5 17-81.5-17-67-45.5-45-66.5-16.5-83zm115 0q0 21 8 38t20.5 29.5 30 20 36.5 7.5 37-7.5 31-20 21-29.5 8-38V869q0-21-8-38t-21-30.5-30.5-20.5-37.5-7q-19 0-36.5 7t-30 20.5T914 831t-8 38v188z"/></svg>