<svg xmlns="http://www.w3.org/2000/svg" viewBox="0 0 2048 2048"><path d="M0 805q0-142 36.5-273T140 287.5t160-207 207-160 244.5-103T1024-219t272.5 36.5 244.5 103 207 160 160 207T2011.5 532t36.5 273-36.5 272.5-103.5 244-160 207-207 160-244.5 103.5-272.5 37-272.5-37T507 1688.5t-207-160-160-207T36.5 1077 0 805zm461 520q0 18 12.5 30.5T504 1368h1040q18 0 30.5-12.5t12.5-30.5V285q0-18-12.5-31t-30.5-13H504q-18 0-30.5 12.5T461 285v1040zm85-44V585h955v696H546zm123-275q0 33 12.5 62t33.5 50 50 34 62 13 62.5-13 50.5-34 33.5-50 12.5-62q0-46-23.5-83T902 866l75-93q8-9 9-22t-4-24q-11-24-39-24H712q-18 0-30.5 12.5T669 746q0 17 12.5 30t30.5 13h141l-60 74v1q-6 6-7 14l-1 1q0 2-.5 5.5t-.5 5.5v4q1 1 1 2 0 7 4 14 1 1 1 2 2 2 4.5 5.5t5.5 5.5q0 1 1 2 7 5 12 5 1 1 2 1 6 3 12 3 30 0 51 21t21 51-21 51-51 21-51-21.5-21-50.5q0-18-12.5-31T712 962t-30.5 12.5T669 1006zm392 0q0 33 12.5 62t34 50 50 34 61.5 13 62.5-13 50.5-34 33.5-50 12.5-62V862q0-33-12.5-62.5T1332 749t-50-33.5-63-12.5q-33 0-61.5 12.5t-50 33.5-34 50.5T1061 862v144zm86 0V862q0-30 21.5-51.5T1219 789q30 0 52 21.5t22 51.5v144q0 30-22 51t-52 21-51-21.5-21-50.5z"/></svg>