<svg xmlns="http://www.w3.org/2000/svg" viewBox="0 0 1638 2048"><path d="M5 685q-10-67 6-131t53.5-115.5 93-86T280 307q67-10 135 4t126 53 100 105.5T701 630q18 135-20 255.5T562 1099t-200.5 154T96 1330q-9 1-14-3-2-2-2-5l-18-113q0-2 1-6 2-7 8-9 42-13 80.5-30.5t70.5-44 56-65 37-92.5q-57-2-109.5-23t-94-57.5-69.5-87T5 685zm931 0q-11-67 5.5-131T995 438.5t92.5-86T1210 307q67-10 135.5 4t126 53 101 105.5T1633 630q17 135-20.5 255.5T1493 1099t-201 154-266 77q-9 1-13-3-2-2-3-5l-17-113q-1-2 0-6 2-7 9-9 42-13 80.5-30.5t70.5-44 56-65 38-92.5q-58-2-110-23t-94-57.5-70-87T936 685z"/></svg>