<svg xmlns="http://www.w3.org/2000/svg" viewBox="0 0 1401 2048"><path d="M0 1339q1 40 11 73t30 57q45 50 116 76 75 25 182 34 55 5 115 6.5t129 1.5h50q-44-55-46-140v-118q0-64 26-130 26-61 70-108 48-50 110-76 1 0 2.5-2t2.5-2q-8-13-15-24.5T770 960q-25-57-25-119 0-19 3.5-38.5T758 763H386q-87 0-155 32-71 31-122 85-25 27-45.5 57.5T30 1003q-30 70-30 143v193zm261-964q0-69 25-126 26-61 69-102 43-46 103-70 57-25 125-26 69 0 123 26 57 25 100 70 22 21 38.5 46.5T873 249q25 57 25 126t-25 126q-13 30-29.5 54T806 602q-21 21-45.5 38T706 670q-58 26-123 26t-125-26q-30-13-55.5-30T355 602q-22-23-39.5-47.5T286 501q-25-57-25-126zm435 1071v-117q0-45 18-87 17-42 48-75 16-17 34.5-29.5T837 1114q43-18 94-18h237q54 0 94 18 22 10 40 23t33 30q16 16 28 34t21 40q8 21 12.5 43t4.5 45v117q0 47-25 77-13 16-30 27t-39 20q-45 16-110 22-32 2-69 4t-77 2q-42 0-78-2t-69-4-60.5-7.5T793 1570q-24-9-41-20t-30-27q-13-15-19.5-33.5T696 1446zm159-605q0-19 4-38t11-38q8-18 18.5-34t23.5-29q15-13 30-24t33-17q38-16 76-16 21 0 39.5 4t36.5 12q17 7 32 17.5t27 23.5q14 14 23.5 29t19.5 34q7 19 10.5 38t3.5 38q0 21-4 39t-10 38q-9 18-19 33t-24 30q-26 25-59 41-18 7-36.5 11t-39.5 4-39.5-4-36.5-11q-18-9-33-19t-30-22q-13-15-23.5-30T870 918q-7-19-11-37.5t-4-39.5z"/></svg>