<svg xmlns="http://www.w3.org/2000/svg" viewBox="0 0 2048 2048"><path d="M0 805q0-142 36.5-273T140 287.5t160-207 207-160 244.5-103T1024-219q141 0 271.5 36.5t244.5 103 207.5 160 160.5 207T2011.5 532t36.5 273-36.5 272.5-103.5 244-160.5 207-207.5 160-244.5 103.5-271.5 37q-142 0-272.5-37T507 1688.5t-207-160-160-207T36.5 1077 0 805zm462 380q2 66 33 104 33 40 94 61 30 10 66 17.5t80 10.5q86 7 194 7h20q-16-24-25-52t-9-61v-95q0-59 22-111 11-26 26-49t35-42q33-37 79-60-3-7-7-13t-6-13q-22-47-22-103 0-16 2.5-31.5t5.5-31.5H771q-67 0-124 26-58 26-97 68-42 43-64 100-24 55-24 114v154zm209-796q0 53 20 100 22 48 56 81 33 34 82 56 49 19 100 20 51 0 100-20 46-21 80-56 34-34 53-81 19-46 20-100 0-55-20-101-18-47-53-82-34-35-80-56-47-21-100-21t-100 21q-48 22-82 56-35 33-56 82-21 48-20 101zm350 882q0 39 20 63 19 24 56 36 38 14 89 17 26 2 56 3.5t63 1.5q32 0 61-1t56-4q53-3 88-17 37-13 56-36 19-25 19-63v-94q0-37-14-71t-38-59q-23-26-59-42-33-15-75-15h-190q-42 0-75 15-18 8-32.5 18.5T1074 1047t-22.5 28-17.5 32q-14 33-13 70v94zm126-485q0 30 13 61 11 29 34 49 19 22 49 34 31 13 62 13 30 0 61-13 27-11 48-34 21-19 33-49 11-27 11-61t-11-61q-13-29-33-51-21-21-48-34-27-11-61-11-35 0-62 11-30 15-49 34-23 23-34 51-13 31-13 61z"/></svg>