<svg xmlns="http://www.w3.org/2000/svg" viewBox="0 0 1641 2048"><path d="M10 1410q22 65 70.5 112t115 77 133.5 48l30 7q50 14 96 21t86 7q118 0 188-50.5T829 1475l172-650q24-89 3-154t-69.5-112T819 481.5 685 434l-28-9q-103-26-185-26-118 0-187.5 50T187 606L11 1256q-23 89-1 154zm228-120l121-444q5-16 19-26t30-4 25.5 20 3.5 31l-122 446q-2 14-13.5 22t-24.5 8q-6 0-10-2-16-3-25-17.5t-4-33.5zm37-1168q-3-30 14.5-51.5T336 46q27-5 49.5 13.5T411 106q3 27-13.5 49.5T351 181h-7q-26 0-46.5-16.5T275 122zm30.5-167.5Q299-72 314-97q15-24 42-31t52 7q24 14 31 41t-7 51h-1q-9 17-25 26t-33 9q-18 0-36-9-25-16-31.5-42.5zm26 310Q342 238 368 225q24-13 51-3t38 36q13 26 2.5 52.5T423 349q-13 7-28 6-19 0-35.5-10T334 317q-13-26-2.5-52.5zM455-146q-1-29 19-49.5t46-21.5q30-2 50.5 17t22.5 49q0 30-19.5 49.5T526-81h-4q-26 0-46-19t-21-46zm81 1517l121-448q3-16 17.5-24t31.5-3q16 5 24.5 19t2.5 31l-119 446q-2 14-13.5 22.5T575 1423q-3 0-5.5-.5t-4.5-.5q-17-6-25.5-20.5T536 1371zm1-763q9-35 38.5-51t62.5-7q34 9 51 38.5t9 62.5q-9 33-38.5 50.5T597 710q-35-9-52-39t-8-63zm94-690q-8-27 4-52 16-24 43-31.5t52 6.5q23 15 31 42.5T755-64q-22 32-59 32-19 0-33-9-24-14-32-41zm3 420q9 2 20 5t24 6l29 6q227 61 323.5 188t49.5 303l-9 44 34 135q5 16-3.5 30.5T1077 1074q-2 1-4.5 2t-7.5 1q-14 0-24.5-9t-14.5-23l-71 262q58 29 143 29 87 0 184-29l29-6q67-18 134.5-48.5t116-77.5 70-112-2.5-153l-174-652q-29-104-99-155.5T1168 51q-41 0-87.5 7T984 80l-30 7q-89 24-157 60.5T689 229q-43 50-55 109zM769 11.5Q769-16 791-35q19-21 47.5-21T887-34q19 19 19 47t-20 49q-18 19-47 19-30 1-49-20-21-22-21-49.5zM941 271q3-16 10.5-30.5T972 216t29-15q17-5 33.5-2t30.5 11 25 21.5 15 29.5q9 33-8 63.5t-52 40.5q-17 5-33.5 1.5t-30-11.5-24-21-14.5-30q-5-17-2-33zm264 248q-5-16 3.5-30.5T1233 469q16-3 31 4.5t18 23.5l121 447q3 17-4.5 31t-23.5 20q-3 1-12 2-13 0-23.5-9t-13.5-22z"/></svg>