<svg xmlns="http://www.w3.org/2000/svg" viewBox="0 0 2048 2048"><path d="M0 805q0-142 36.5-273T140 287.5t160.5-207T508-79.5t244-103 272-36.5 272.5 36.5 244.5 103 207 160 160 207T2011.5 532t36.5 273-36.5 272.5-103.5 244-160 207-207 160-244.5 103.5-272.5 37q-141 0-271.5-37T508 1688.5t-207.5-160-160.5-207T36.5 1077 0 805zm424 540q17 52 56 89t92 61 107 39l23 5q40 10 77 16t70 6q183 0 228-164l138-519q18-71 1.5-123t-55.5-89-92-61-107-38l-23-7q-40-10-76.5-16t-69.5-6q-184 0-227 166l-140 518q-19 71-2 123zm183-95l95-356q3-13 15-19.5t25-3.5 19.5 15 3.5 25l-96 355q-6 24-31 24-6 0-8-1-13-3-20-14.5t-3-24.5zm30-932q2 21 17.5 34.5T690 366h7q23-2 36.5-20t10.5-41q-2-23-19-36.5T685 257t-37 20-11 41zm23-134q6 22 26 34 14 7 27 7 31 0 47-26h1q11-19 5.5-41T742 125q-19-13-41.5-7T667 143q-13 19-7 41zm21.5 246q-8.5 21 .5 42 7 16 21 24t28 8 23-5q21-9 28.5-31t-1.5-41q-9-21-30.5-28.5T709 400q-19 9-27.5 30zM779 104q1 23 16.5 38t38.5 15h1q23-1 38.5-17.5T888 101q-1-23-17-38.5T832 48t-38.5 17-14.5 39zm64 1209l96-355q3-13 14.5-19.5T979 935q13 3 20 14.5t2 25.5l-95 355q-2 11-11 17.5t-20 6.5q-6 0-9-1-13-3-19-15t-4-25zm2-608q7-26 30.5-40t50.5-7q26 7 40.5 31t6.5 50q-7 26-31.5 40.5T891 786q-26-7-39.5-31t-6.5-50zm75-550q6 22 25 34 11 7 26 6 14 0 27-6.5t20-20.5q11-19 5-41t-25-32q-19-13-40.5-6.5T925 114t-5 41zm1 334q9 2 17.5 4.5T957 498l22 6q183 49 259.5 149t39.5 241l-9 35 28 109q3 13-3.5 24t-19.5 15q-2 1-8 1-25 0-31-24l-57 210q48 21 115 21t146-22l23-6q54-15 107-39t91.5-61 55.5-88.5-2-122.5l-139-519q-42-165-226-164-67 0-148 20l-23 7q-72 19-125.5 48T966 403q-34 40-45 86zm109.5-258q-.5 23 15.5 39t39 16q22 0 37-16 16-16 16.5-38.5T1123 193t-38-16.5-38 15.5-16.5 39zM1168 464q-7-27 7-50.5t40-31.5q26-7 50 6.5t32 40.5q7 26-6.5 50t-40.5 32q-27 7-50.5-7t-31.5-40zm209 170q-3-13 3.5-24t19.5-15q13-3 24 3.5t15 19.5l96 356q2 13-4 24.5t-19 15.5q-2 0-4.5.5t-4.5.5q-10 0-19.5-7t-11.5-17z"/></svg>